<?xml version="1.0" standalone="no"?>
<!DOCTYPE svg PUBLIC "-//W3C//DTD SVG 1.1//EN" "http://www.w3.org/Graphics/SVG/1.1/DTD/svg11.dtd" >
<svg xmlns="http://www.w3.org/2000/svg" xmlns:xlink="http://www.w3.org/1999/xlink" version="1.1">
<metadata>
Created by FontForge 20170731 at Wed Jun 13 20:11:30 2007
 By Aleksey,,,
(c) 1985, 1987, 1990, 1994, 2001, 2002 Adobe Systems Incorporated. All rights reserved.
</metadata>
<defs>
<font id="FrizQuadrataStd" horiz-adv-x="560" >
  <font-face 
    font-family="Friz Quadrata Std"
    font-weight="500"
    font-stretch="normal"
    units-per-em="1000"
    panose-1="2 14 6 2 4 5 4 2 4 4"
    ascent="674"
    descent="-326"
    x-height="460"
    cap-height="658"
    bbox="-147 -250 1138 884"
    underline-thickness="50"
    underline-position="-200"
    unicode-range="U+0020-FB02"
  />
<missing-glyph horiz-adv-x="500" 
d="M0 0v700h500v-700h-500zM250 395l170 255h-340zM280 350l170 -255v510zM80 50h340l-170 255zM50 605v-510l170 255z" />
    <glyph glyph-name="f_i" unicode="fi" horiz-adv-x="520" 
d="M170 460h174q73 0 88 13h3v-363v-18.5v-19t1 -16t3.5 -16t6.5 -13t11 -14t16 -10.5v-3h-167v3q9 5 16 10.5t11 14t6.5 13t3.5 16t1 16v19v18.5v240q0 31 -8 37.5t-41 6.5h-126v-284v-16.5v-16.5t0.5 -14t2.5 -15t4.5 -12t6.5 -12.5t10.5 -10t14.5 -10.5v-3h-167v3
q9 5 15.5 10.5t10.5 13.5l6.5 13t3.5 16.5t1 16v19v18.5v284h-49l49 66v20q0 37 1 51.5t9 39t26 45.5q55 63 165 63q71 0 117 -27t46 -68q0 -26 -15.5 -42t-41.5 -16q-20 0 -34.5 14t-14.5 34q0 11 7 25q-42 14 -79 14q-56 0 -75 -18.5t-19 -76.5v-58z" />
    <glyph glyph-name="f_l" unicode="fl" horiz-adv-x="500" 
d="M23 394l48 66q0 77 8 102q9 25 28 46q59 66 159 66q29 0 64 -9t48 -9q27 0 43 18h3v-564v-16.5v-16.5t0.5 -14.5t2 -14.5t4 -12.5t7 -12.5t10.5 -10.5t14 -9.5v-3h-167v3q9 5 16 10.5t11 13.5l6.5 13t3.5 16.5t1 15.5v19v19v480q-35 18 -84 18q-26 0 -42.5 -6t-26 -14
t-13.5 -28.5t-4.5 -35.5t-0.5 -49v-15h136v-80h-3q-5 14 -31 14h-102v-284v-18.5v-19t1 -16t3.5 -16t6.5 -13t11 -14t16 -10.5v-3h-167v3q9 5 16 10.5t11 13.5l6.5 13t3.5 16.5t1 15.5v19v19v284h-48z" />
    <glyph glyph-name=".notdef" horiz-adv-x="500" 
d="M0 0v700h500v-700h-500zM250 395l170 255h-340zM280 350l170 -255v510zM80 50h340l-170 255zM50 605v-510l170 255z" />
    <glyph glyph-name=".null" horiz-adv-x="0" 
 />
    <glyph glyph-name="nonmarkingreturn" horiz-adv-x="333" 
 />
    <glyph glyph-name="space" unicode=" " horiz-adv-x="280" 
 />
    <glyph glyph-name="exclam" unicode="!" horiz-adv-x="280" 
d="M200 49q0 -25 -17.5 -43.5t-42.5 -18.5q-28 0 -46 19t-18 46q0 25 19 42t45 17q25 0 42.5 -18.5t17.5 -43.5zM173 170h-72l-16 376q-3 83 -10 99q-9 18 -29 26v3h121q1 0 6 0.5t8 0t7 -1t6 -3t2 -6.5l-1 -19z" />
    <glyph glyph-name="quotedbl" unicode="&#x22;" horiz-adv-x="260" 
d="M50 457v201h46v-201h-46zM164 457v201h46v-201h-46z" />
    <glyph glyph-name="numbersign" unicode="#" 
d="M375 231l-32 -231h-63l34 231h-95l-33 -231h-62l33 231h-121v60h130l13 92h-119v60h126l33 215h61l-31 -215h94l32 215h62l-30 -215h109v-60h-119l-13 -92h110v-60h-119zM336 383h-95l-13 -92h94z" />
    <glyph glyph-name="dollar" unicode="$" 
d="M310 0v-86h-54v86l-178 15v117h3q75 -66 175 -66v251q-32 14 -43.5 19t-40.5 19.5t-41.5 26t-29.5 30t-24 40t-7 47.5q0 68 57 111t129 48v77h54v-77q73 -7 126 -25v-105h-3q-56 64 -123 64v-192q4 -2 30 -15.5t32 -17t28.5 -16t29 -19.5t23.5 -20.5t23 -25t15 -27
t12 -33t3 -36.5q0 -79 -56.5 -128t-139.5 -62zM310 291v-225q39 3 72 37t33 79q0 20 -9.5 37.5t-27 31t-32 22t-36.5 18.5zM256 421v171q-36 0 -65.5 -24t-29.5 -61q0 -7 2 -14t6.5 -13.5t8 -11.5t11.5 -10.5t12.5 -9t14 -8t13.5 -6.5t14.5 -7t12.5 -6z" />
    <glyph glyph-name="percent" unicode="%" horiz-adv-x="780" 
d="M174 260q-54 0 -92 33t-53 79t-15 99q0 80 42.5 141.5t118.5 61.5t116.5 -61t40.5 -141q0 -87 -44 -151t-114 -61zM171 626q-35 0 -57 -27.5t-29 -59.5t-7 -66q0 -26 4.5 -52t14.5 -53t30 -43.5t48 -16.5q35 0 57.5 28.5t29 61.5t6.5 68q0 33 -8 67t-31.5 63.5
t-57.5 29.5zM608 -16q-54 0 -92 33t-53 79t-15 99q0 80 42.5 141.5t118.5 61.5t116.5 -61t40.5 -141q0 -90 -44 -150.5t-114 -61.5zM605 350q-35 0 -57 -27.5t-29 -59.5t-7 -66q0 -26 4.5 -52t14.5 -52.5t30 -43.5t48 -17q36 0 58 29t28.5 61.5t6.5 67.5q0 34 -8 68
t-31.5 63t-57.5 29zM581 658l-323 -658h-59l324 658h58z" />
    <glyph glyph-name="ampersand" unicode="&#x26;" horiz-adv-x="780" 
d="M807 0h-109q-63 0 -94 16q-62 33 -119 88q-38 -62 -87 -89.5t-121 -27.5q-91 0 -158.5 51.5t-67.5 139.5q0 67 35 114.5t103 101.5q-80 82 -80 141q0 60 47.5 99.5t108.5 39.5t102.5 -38.5t41.5 -99.5q0 -45 -22 -77.5t-65 -70.5q14 -13 62.5 -60t67.5 -65t62.5 -57.5
t71 -61t67 -51t77.5 -51t77 -39.5v-3zM265 447q65 47 65 100q0 28 -20 44.5t-49 16.5t-47.5 -15t-18.5 -42q0 -42 70 -104zM445 139l-197 193q-90 -64 -90 -148q0 -60 40 -95.5t100 -35.5q82 0 147 86z" />
    <glyph glyph-name="quotesingle" unicode="'" horiz-adv-x="180" 
d="M66 457v201h46v-201h-46z" />
    <glyph glyph-name="parenleft" unicode="(" horiz-adv-x="300" 
d="M192 658h67q-126 -188 -126 -400q0 -102 33.5 -207.5t92.5 -187.5h-67q-61 89 -98.5 193.5t-37.5 204.5q0 196 136 397z" />
    <glyph glyph-name="parenright" unicode=")" horiz-adv-x="300" 
d="M100 -137h-66q59 82 92 187.5t33 207.5q0 211 -125 400h66q136 -198 136 -397q0 -100 -37.5 -204.5t-98.5 -193.5z" />
    <glyph glyph-name="asterisk" unicode="*" horiz-adv-x="420" 
d="M153 485l16 20l7 10l-9 3q-38 12 -71 12q-15 0 -30 -3l27 77q25 -27 82 -46l12 -4v9q0 61 -23 95h83q-19 -29 -19 -91v-13l8 3q67 22 85 50l27 -75l-18 1q-29 0 -76 -15l-12 -3l20 -24q34 -39 59 -48l-66 -48q-5 38 -40 86l-7 10l-5 -7q-35 -49 -41 -89l-66 48
q27 9 57 42z" />
    <glyph glyph-name="plus" unicode="+" horiz-adv-x="600" 
d="M66 262h205v206h56v-206h205v-56h-205v-206h-56v206h-205v56z" />
    <glyph glyph-name="comma" unicode="," horiz-adv-x="280" 
d="M108 -107l-38 3q18 15 45.5 47.5t27.5 45.5q0 7 -13 10q-47 13 -47 53q0 25 17 42t43 17q28 0 45 -19.5t17 -48.5q0 -63 -59 -126q-24 -24 -38 -24z" />
    <glyph glyph-name="hyphen" unicode="-" horiz-adv-x="360" 
d="M207 211h-101q-54 0 -87 -12l-2 2l53 60q19 19 23 21q9 4 60 4h101q54 0 87 12l2 -2l-53 -60q-19 -19 -23 -21q-9 -4 -60 -4z" />
    <glyph glyph-name="period" unicode="." horiz-adv-x="280" 
d="M202 50q0 -26 -18 -44.5t-43 -18.5q-27 0 -45 19t-18 47q0 25 19 41.5t45 16.5q24 0 42 -18.5t18 -42.5z" />
    <glyph glyph-name="slash" unicode="/" horiz-adv-x="400" 
d="M2 -137l315 795h72l-313 -795h-74z" />
    <glyph glyph-name="zero" unicode="0" 
d="M277 -16q-115 1 -189 101t-74 242q0 147 70.5 247t196.5 100q67 0 119 -30t83 -80t46.5 -109t15.5 -122q0 -50 -9.5 -99t-31 -94.5t-52 -80t-76 -55t-99.5 -20.5zM277 596q-45 0 -77.5 -26t-48.5 -68t-23 -83t-7 -82q0 -43 7.5 -86.5t24.5 -88t50.5 -72.5t79.5 -28
q72 0 113.5 76t41.5 187q0 112 -44 191t-117 80z" />
    <glyph glyph-name="one" unicode="1" 
d="M125 527v3q67 23 123.5 69t90.5 106h3v-564v-11q0 -34 1.5 -50.5t13 -39t35.5 -37.5v-3h-210v3q22 11 35 24t18 35.5t5.5 34t0.5 44.5v386h-116z" />
    <glyph glyph-name="two" unicode="2" 
d="M487 0h-459l252 365q4 5 17 23.5t19 28t15 25.5t13 30.5t4 28.5q0 43 -34 69t-78 26q-76 0 -173 -64h-3l60 122q70 20 131 20q86 0 148.5 -41.5t62.5 -107.5q0 -51 -42 -120l-219 -323l132 -10q121 0 206 46h3z" />
    <glyph glyph-name="three" unicode="3" 
d="M157 315v83l46 -3q66 -4 108 26t42 75q0 46 -39 73t-87 27q-73 0 -152 -51h-3l41 107q58 22 133 22q81 0 147 -40t66 -116q0 -54 -33.5 -90t-88.5 -51q75 -14 123.5 -58t48.5 -117q0 -60 -30 -104.5t-80 -68t-102.5 -34.5t-108.5 -11l-104 8l-49 120h3q93 -50 182 -50
q70 0 122.5 38t52.5 106q0 57 -40 88t-119 31q-46 0 -79 -10z" />
    <glyph glyph-name="four" unicode="4" 
d="M337 136h-348l311 522h138v-444q76 0 127 42l-48 -120h-79v-20q0 -29 1.5 -45.5t12 -37t30.5 -30.5v-3h-194v3q10 4 18 9t13 8.5t8.5 12t5.5 12t3 15t1 14.5v18v18v26zM337 214v371l-211 -364q121 -7 211 -7z" />
    <glyph glyph-name="five" unicode="5" 
d="M458 658v-121h-3q-40 43 -159 43l-109 -6l-9 -165q46 13 97 13q103 0 172.5 -56.5t69.5 -157.5q0 -99 -84.5 -161.5t-212.5 -62.5q-60 0 -129 16l-47 102q77 -40 175 -40q77 0 130.5 37t53.5 110q0 67 -52 101t-122 34q-79 0 -153 -33l22 347h360z" />
    <glyph glyph-name="six" unicode="6" 
d="M474 677l-48 -63q-48 -7 -101.5 -38t-95.5 -69q-108 -102 -108 -242q0 -85 47 -150t129 -65q64 0 102 43.5t38 109.5q0 78 -40 123t-115 45q-49 0 -110 -34l63 79q39 21 89 21q94 0 154 -59.5t60 -153.5q0 -104 -73 -172t-178 -68q-117 0 -192 81t-75 199
q0 86 40.5 161.5t106 127t145.5 84t162 40.5z" />
    <glyph glyph-name="seven" unicode="7" 
d="M98 658h431l-195 -456q-53 -124 -57 -153q-3 -34 26 -46v-3h-167l252 574q-83 18 -140 18q-121 0 -192 -54h-3z" />
    <glyph glyph-name="eight" unicode="8" 
d="M164 346q-126 51 -126 158q0 76 67 123t171 47q56 0 106.5 -15.5t89 -54.5t38.5 -96q0 -87 -122 -148q32 -15 49.5 -24.5t42 -26.5t37 -34t22 -42.5t9.5 -56.5q0 -85 -76.5 -138.5t-192.5 -53.5q-111 0 -188 51t-77 135q0 114 150 176zM225 315q-44 -18 -77 -53.5
t-33 -77.5q0 -61 46.5 -97.5t124.5 -36.5q62 0 111.5 29t49.5 85q0 21 -7.5 38.5t-24 31.5t-31.5 24t-40.5 19.5t-41 14.5t-42.5 13t-35 10zM327 385q34 18 58 48.5t24 65.5q0 49 -38.5 79t-108.5 30q-48 0 -85.5 -21.5t-37.5 -65.5q0 -14 4 -26.5t12.5 -23t17 -19
t23.5 -16.5t25.5 -13.5t28.5 -12t26.5 -9.5t27 -8.5t23.5 -7.5z" />
    <glyph glyph-name="nine" unicode="9" 
d="M84 -20l50 62q124 26 215 125t91 222q0 84 -45.5 149t-126.5 65q-64 0 -105 -43.5t-41 -107.5q0 -70 42 -116.5t110 -46.5q52 0 106 32l-68 -83q-39 -15 -81 -15q-89 0 -149.5 59t-60.5 149q0 107 76 175t184 68q115 0 187.5 -79t72.5 -195q0 -85 -41 -164t-109 -133
q-125 -99 -307 -123z" />
    <glyph glyph-name="colon" unicode=":" horiz-adv-x="280" 
d="M204 316q0 -25 -17.5 -43.5t-42.5 -18.5q-28 0 -46 19t-18 46q0 25 19 42t45 17q25 0 42.5 -18.5t17.5 -43.5zM200 50q0 -26 -17.5 -44.5t-42.5 -18.5q-28 0 -46 19t-18 47q0 25 19 41.5t45 16.5q24 0 42 -18.5t18 -42.5z" />
    <glyph glyph-name="semicolon" unicode=";" horiz-adv-x="280" 
d="M202 316q0 -25 -17.5 -43.5t-42.5 -18.5q-28 0 -46 19t-18 46q0 25 19 42t45 17q25 0 42.5 -18.5t17.5 -43.5zM108 -107l-38 3q18 15 45.5 47.5t27.5 45.5q0 7 -13 10q-47 13 -47 53q0 25 17 42t43 17q28 0 45 -19.5t17 -48.5q0 -63 -59 -126q-24 -24 -38 -24z" />
    <glyph glyph-name="less" unicode="&#x3c;" horiz-adv-x="600" 
d="M548 37v-57l-498 227v52l498 229v-58l-433 -198z" />
    <glyph glyph-name="equal" unicode="=" horiz-adv-x="600" 
d="M66 331h466v-56h-466v56zM66 193h466v-56h-466v56z" />
    <glyph glyph-name="greater" unicode="&#x3e;" horiz-adv-x="600" 
d="M50 37l433 195l-433 198v58l498 -229v-52l-498 -227v57z" />
    <glyph glyph-name="question" unicode="?" horiz-adv-x="480" 
d="M251 49q0 -26 -17.5 -44t-42.5 -18q-28 0 -46 18.5t-18 46.5q0 25 19.5 42t44.5 17t42.5 -18.5t17.5 -43.5zM222 158l-78 -9q-5 22 -5 38q0 46 20 76t63 67q42 35 66 68.5t24 74.5q0 59 -42 94t-102 35q-56 0 -133 -42l56 93q48 21 100 21q88 0 155 -46.5t67 -131.5
q0 -55 -26 -94t-79 -86q-61 -56 -72 -69q-19 -20 -19 -53q0 -16 5 -36z" />
    <glyph glyph-name="at" unicode="@" horiz-adv-x="700" 
d="M561 514l-106 -274q-15 -39 -15 -53q0 -18 21 -18q60 0 116 70q50 62 50 145q0 102 -77 171t-179 69q-124 0 -211 -89.5t-87 -213.5q0 -115 85.5 -201t198.5 -86q82 0 150.5 38.5t114.5 107.5h55q-45 -93 -129.5 -144.5t-185.5 -51.5q-141 0 -242 100t-101 241
q0 145 104.5 247t249.5 102q135 0 221.5 -86t86.5 -196q0 -112 -75 -190t-163 -78q-28 0 -49.5 14.5t-20.5 41.5q-66 -54 -114 -54q-53 0 -82 34.5t-29 89.5q0 61 27 125.5t80 111t116 46.5q54 0 89 -39l10 20h91zM267 174q21 0 39.5 12t34 34t24 38.5t19.5 40.5
q14 29 31.5 77.5t17.5 69.5q0 17 -10.5 28t-27.5 11q-51 0 -113 -108q-51 -98 -51 -160q0 -43 36 -43z" />
    <glyph glyph-name="A" unicode="A" horiz-adv-x="720" 
d="M473 247h-252l-52 -141q-18 -41 -15.5 -65.5t35.5 -37.5v-3h-184v3q9 5 17.5 10.5t16 13t12.5 13t11 16.5t9.5 15.5t9 18t7 17.5t7.5 19.5t7 18.5l167 417q20 51 14 68q-7 18 -29 25v3h158l208 -513q1 -3 7 -18.5t8 -19.5t7.5 -17t9 -18.5t9.5 -16t11.5 -16t12.5 -13
t15.5 -13t17.5 -10.5v-3h-205v3q35 16 35.5 33.5t-21.5 69.5zM444 321l-98 252l-99 -252h197z" />
    <glyph glyph-name="B" unicode="B" horiz-adv-x="580" 
d="M83 141v377q0 3 0.5 20.5t0 24t-1.5 22t-4 23.5t-8 19t-12.5 17.5t-18.5 10.5v3h237q98 0 153.5 -39t55.5 -106q0 -86 -100 -130q72 -15 117.5 -61t45.5 -116q0 -56 -34 -103t-86 -72q-11 -6 -22.5 -10t-26 -7.5t-23.5 -6t-26.5 -3.5t-23.5 -2t-27 -1.5t-24 -0.5h-27h-24
h-165v3q9 3 16 9.5t12 13t8 18t4.5 18t2.5 21t1 20v20.5v18zM185 80l87 -8q67 -7 116 25.5t49 99.5q0 68 -55 103t-127 31l-70 -4v-247zM185 393h33q61 0 109.5 24.5t48.5 79.5q0 49 -38 76.5t-86 22.5l-67 -7v-196z" />
    <glyph glyph-name="C" unicode="C" horiz-adv-x="600" 
d="M553 649v-115q-90 57 -185 57q-103 0 -168.5 -68.5t-65.5 -177.5q0 -114 71 -196t183 -82q103 0 213 63h3l-51 -116q-64 -30 -151 -30q-177 0 -279.5 93t-102.5 253q0 154 98 249t253 95q77 0 182 -25z" />
    <glyph glyph-name="D" unicode="D" horiz-adv-x="680" 
d="M80 144v377q0 3 0.5 20.5t0 24t-1.5 22t-4 23.5t-8 18.5t-12.5 16.5t-18.5 9v3h245q171 0 270.5 -87t99.5 -236q0 -148 -104 -241.5t-271 -93.5h-240v3q9 6 16 13.5t12 14t8 17t4.5 16t2.5 19t1 18.5v21.5v21.5zM182 575v-496q34 -7 73 -7q120 0 201 64t81 187
q0 130 -69 196.5t-196 66.5q-43 0 -90 -11z" />
    <glyph glyph-name="E" unicode="E" horiz-adv-x="520" 
d="M189 321v-237l127 -12q107 -10 185 59h3l-45 -131h-417v3q9 3 16.5 9.5t12 13t8 17.5t5 18t2.5 21t1 19.5v21v17.5v377v18v20.5t-1 20t-2.5 21t-5 18t-8 18t-12 13t-16.5 9.5v3h320q38 0 47 5h3v-117h-3q-34 40 -118 40q-65 0 -102 -7v-186h119q32 0 44 6h3v-106h-3
q-7 13 -24.5 20t-29.5 7.5t-35 0.5h-74z" />
    <glyph glyph-name="F" unicode="F" horiz-adv-x="420" 
d="M182 321v-181q0 -5 -0.5 -20.5t0 -23.5t1.5 -22.5t3.5 -23t7 -19t12.5 -17.5t18 -11v-3h-189v3q9 3 16.5 9.5t12 13t8 17.5t5 18t2.5 21t1 19.5v21v17.5v377v18v20.5t-1 20t-2.5 21t-5 18t-8 18t-12 13t-16.5 9.5v3h320q38 0 47 5h3v-116h-3q-35 39 -118 39
q-65 0 -102 -7v-186h120q31 0 43 6h3v-106h-3q-7 14 -25 20.5t-28.5 7t-35.5 0.5h-74z" />
    <glyph glyph-name="G" unicode="G" horiz-adv-x="680" 
d="M591 657v-115h-3q-53 60 -178 60q-119 0 -197 -72t-78 -191q0 -120 83.5 -201.5t202.5 -81.5q73 0 139 19v144q0 30 -1.5 47t-12.5 37.5t-32 28.5v3h153v-3q-5 -12 -5 -43v-230q0 -33 5 -45q-160 -30 -239 -30q-189 0 -298 94t-109 247q0 159 114.5 254t298.5 95
q77 0 157 -17z" />
    <glyph glyph-name="H" unicode="H" horiz-adv-x="720" 
d="M540 321h-361v-181v-18v-20.5t1 -19.5t2.5 -21t4.5 -18t8 -17.5t12 -13t16 -9.5v-3h-190v3q9 3 16 9.5t12 13t8 17.5t4.5 18t2.5 21t1 19.5v20.5v18v378q0 3 0.5 20.5t0 24t-1.5 22t-4 23.5t-8 19t-12.5 17.5t-18.5 10.5v3h190v-3q-9 -3 -16 -9.5t-12 -13t-8 -18
t-4.5 -18t-2.5 -21t-1 -20v-20.5v-18v-124h361v124q0 3 0.5 20.5t0 24t-1.5 22.5t-4 24t-8 19t-12.5 17.5t-18.5 10.5v3h191v-3q-9 -3 -16.5 -9.5t-12 -13t-8 -18t-5 -18t-2.5 -20.5t-1 -19.5v-21v-17.5v-378v-17.5v-21t1 -19.5t2.5 -20.5t5 -18t8 -18t12 -13t16.5 -9.5v-3
h-191v3q11 4 18.5 10.5t12.5 17.5t8 19t4 23.5t1.5 22t0 24t-0.5 20.5v181z" />
    <glyph glyph-name="I" unicode="I" horiz-adv-x="260" 
d="M81 140v377q0 3 0.5 20.5t0 24t-1.5 22.5t-4 24t-8 19t-12.5 17.5t-18.5 10.5v3h190v-3q-9 -3 -16 -9.5t-12 -13t-8 -18t-4.5 -18.5t-2.5 -21t-1 -19.5v-20.5v-18v-377v-18v-20.5t1 -19.5t2.5 -21t4.5 -18t8 -17.5t12 -13t16 -9.5v-3h-190v3q9 3 16 9.5t12 13t8 17.5
t4.5 18t2.5 21t1 19.5v20.5v18z" />
    <glyph glyph-name="J" unicode="J" horiz-adv-x="260" 
d="M87 12v505v18v20.5t-1 20t-2.5 21t-5 18t-8 18t-12 13t-16.5 9.5v3h191v-3q-9 -3 -16 -9.5t-12 -13t-8 -18t-4.5 -18t-2.5 -21t-1 -20v-20.5v-18v-567q0 -156 -224 -180v3q78 50 100 99.5t22 139.5z" />
    <glyph glyph-name="K" unicode="K" horiz-adv-x="600" 
d="M83 141v377v17.5v21t-1 19.5t-2.5 20.5t-5 18t-8 18t-12 13t-16.5 9.5v3h192v-3q-9 -3 -16.5 -9.5t-12 -13t-8 -17.5t-5 -18t-2.5 -21t-1 -19.5v-21v-17.5v-377v-18v-20.5t1 -20t2.5 -21t5 -18t8 -18t12 -13t16.5 -9.5v-3h-192v3q9 3 16.5 9.5t12 13t8 18t5 18.5t2.5 21
t1 19.5v21v17.5zM198 342l131 174q4 6 15 20.5t16.5 22.5t13.5 21.5t9.5 22.5t1 19.5t-8 18.5t-21.5 14v3h180v-1l-230 -295l202 -265q42 -56 120 -94v-3h-94q-36 0 -67.5 12.5t-45.5 30.5z" />
    <glyph glyph-name="L" unicode="L" horiz-adv-x="520" 
d="M190 81l136 -9q98 -6 177 61h3l-52 -133h-411v3q9 3 16.5 9.5t12 13t8 17.5t5 18t2.5 21t1 19.5v21v17.5v377v18v20.5t-1 20t-2.5 21t-5 18t-8 18t-12 13t-16.5 9.5v3h191v-3q-11 -4 -18.5 -10.5t-12.5 -17.5t-8 -19.5t-4 -24t-1.5 -22t0 -24t0.5 -20.5v-436z" />
    <glyph glyph-name="M" unicode="M" horiz-adv-x="900" 
d="M461 171l166 424q15 39 15 62v1h173v-3q-31 -9 -31 -59l66 -491q5 -41 14 -62t37 -40v-3h-193v3q41 13 41 75l-57 482l-224 -573q-35 27 -51.5 51t-36.5 70l-190 451l-57 -430q-10 -44 -5 -78t37 -48v-3h-163v3q20 17 32 43t15 43t9 54l57 419q0 2 1.5 9.5t1.5 10.5
t1 10.5t0 11.5t-2 11t-3.5 11.5t-6.5 10t-10 10t-13 8.5v3h175v-1q0 -12 14 -45z" />
    <glyph glyph-name="N" unicode="N" horiz-adv-x="720" 
d="M158 517v-387q0 -23 0.5 -32.5t3 -26.5t7.5 -26.5t15.5 -21t25.5 -20.5v-3h-177v3q19 11 30.5 24t16 31.5t5.5 31.5t1 40v399q0 27 -1 40t-5.5 31.5t-15.5 31t-30 23.5v3h146v-1q4 -13 15 -25l14 -20l366 -462v379q0 28 -1 40.5t-5 31t-15.5 31t-30.5 23.5v3h176v-3
q-19 -11 -30 -23.5t-15.5 -31t-5.5 -31.5t-1 -40v-561q-50 17 -79.5 41.5t-66.5 72.5z" />
    <glyph glyph-name="O" unicode="O" horiz-adv-x="780" 
d="M398 675q102 0 185 -47t128 -124.5t45 -167.5q0 -151 -108 -251.5t-260 -100.5t-258.5 98t-106.5 249q0 144 109.5 246t265.5 98zM391 603q-115 0 -184.5 -74t-69.5 -189q0 -111 71.5 -197.5t184.5 -86.5q112 0 180.5 73.5t68.5 186.5q0 116 -69 201.5t-182 85.5z" />
    <glyph glyph-name="P" unicode="P" horiz-adv-x="520" 
d="M45 658h243q101 0 165 -46.5t64 -128.5q0 -83 -65.5 -135.5t-154.5 -52.5q-44 0 -73 14q71 4 125 45t54 109q0 63 -39 93t-103 30q-35 0 -70 -6v-451q0 -28 1 -40.5t5 -31t15.5 -31t30.5 -23.5v-3h-199v3q9 3 16.5 9.5t12 13t8 17.5t5 18t2.5 21t1 19.5v21v17.5v377v18
v20.5t-1 19.5t-2.5 21t-4.5 18t-8 17.5t-12 13t-16 10.5v3z" />
    <glyph glyph-name="Q" unicode="Q" horiz-adv-x="780" 
d="M885 -129h14q-54 -51 -127 -51q-45 0 -113 34.5t-108 64t-98 75.5q-13 -3 -41 -7q-20 -3 -41 -3q-148 0 -251 99t-103 246q0 150 109.5 247.5t261.5 97.5q151 0 256.5 -94.5t105.5 -244.5q0 -91 -49 -175t-129 -121q38 -34 69 -59t73 -52.5t85.5 -42t85.5 -14.5zM387 56
q111 0 180 73.5t69 185.5q0 72 -27.5 136t-87 107.5t-139.5 43.5q-115 0 -183 -75.5t-68 -179.5q0 -124 72 -207.5t184 -83.5z" />
    <glyph glyph-name="R" unicode="R" horiz-adv-x="540" 
d="M39 658h238q98 0 152.5 -45t54.5 -116q0 -63 -47 -112t-112 -64l144 -181q62 -77 162 -140h-92q-75 0 -116 50l-122 151l-92 141q72 11 122.5 45t50.5 98q0 52 -38 82.5t-91 28.5q-29 -1 -68 -8v-448v-18v-20.5t1 -20t2.5 -21t5 -18t8 -17.5t12 -12.5t16.5 -9.5v-3h-191
v3q11 4 18.5 10.5t12.5 17.5t8 19t4 23.5t1.5 22t0 24t-0.5 20.5v377q0 3 0.5 20.5t0 24t-1.5 22.5t-4 24t-8 19t-12.5 17.5t-18.5 10.5v3z" />
    <glyph glyph-name="S" unicode="S" horiz-adv-x="520" 
d="M428 652v-113q-29 29 -71.5 46t-85.5 17q-51 0 -90 -22t-39 -69q0 -37 35.5 -67t86 -52.5t101 -46.5t86 -63.5t35.5 -90.5q0 -83 -77 -145t-191 -62q-98 0 -179 30l-29 125q96 -83 219 -83q50 0 96.5 28t46.5 76q0 43 -35.5 74t-86 53t-101 46t-86 66t-35.5 101
q0 60 38.5 100.5t93 57t119.5 16.5q79 0 149 -22z" />
    <glyph glyph-name="T" unicode="T" horiz-adv-x="460" 
d="M275 586v-456q0 -28 1 -40.5t5 -31.5t15.5 -31.5t30.5 -23.5v-3h-198v3q9 3 16 9.5t12 13t8 17.5t4.5 18t2.5 21t1 19.5v20.5v18v446h-88q-76 0 -119 -40h-3l35 119h3q4 -2 38 -7h398q31 0 46 7h3l-32 -119h-3q-15 40 -86 40h-90z" />
    <glyph glyph-name="U" unicode="U" horiz-adv-x="680" 
d="M496 0v66q-31 -41 -85 -61.5t-111 -20.5q-117 0 -181 70q-25 27 -36.5 64t-13 60t-1.5 73v267q0 3 0.5 20.5t0 24t-1.5 22t-4 23.5t-8 19t-12.5 17.5t-18.5 10.5v3h190v-3q-9 -3 -16 -9.5t-12 -13t-8 -17.5t-4.5 -18t-2.5 -21t-1 -19.5v-20.5v-18v-267q0 -195 159 -195
q97 0 146 70q10 14 15 30.5t5.5 26.5t0.5 34v301v18v20.5t-1 19.5t-2.5 21t-4.5 18t-8 17.5t-12 13t-16 9.5v3h190l1 -3q-9 -3 -16.5 -9.5t-12 -13t-8 -18t-5 -18t-2.5 -21t-1 -20v-20.5v-18v-377v-17.5v-21t1 -19.5t2.5 -20.5t5 -18t8 -18t12 -13t16.5 -9.5v-3h-147z" />
    <glyph glyph-name="V" unicode="V" horiz-adv-x="600" 
d="M315 118l136 359q35 92 34 125q-3 39 -35 53v3h149l-264 -688q-6 4 -23.5 15.5t-21.5 14t-16.5 11.5t-15.5 13.5t-11.5 13.5t-12.5 17.5t-10 20.5t-11 27l-151 409q-2 5 -11 30t-13 34t-12.5 27.5t-18.5 30t-23 21.5v3h146l-1 -12q0 -19 27 -93z" />
    <glyph glyph-name="W" unicode="W" horiz-adv-x="940" 
d="M490 475l-156 -505q-13 9 -34 24t-27 19.5t-18.5 15.5t-16.5 17t-11.5 20t-13 28.5t-12.5 37.5l-118 369q-1 4 -8.5 27.5t-10 30.5t-10.5 26t-14.5 28t-17 21.5t-22.5 20.5v3h146q-4 -22 12 -72l149 -465l117 380q13 41 17.5 63t-1.5 50t-32 41v3h141q-7 -31 15 -101
l139 -433l113 366q23 73 23 99q-3 49 -50 66v3h154l-211 -688l-30 20t-25.5 17.5t-17.5 13.5t-15.5 15t-10.5 15t-12 21t-9 24.5t-12 34.5z" />
    <glyph glyph-name="X" unicode="X" horiz-adv-x="620" 
d="M298 286l-139 -184q-12 -16 -18 -26.5t-10 -25.5t4.5 -26.5t30.5 -20.5v-3h-194v3l277 348l-145 210q-53 78 -96 97h116q22 0 32 -5.5t18 -18.5l145 -209l99 134q64 87 -9 96v3h183l-227 -296l160 -238q2 -3 13.5 -20.5t15 -22t14 -19t17 -20.5t17 -16t21 -16t22.5 -10
h-115q-38 0 -65 35z" />
    <glyph glyph-name="Y" unicode="Y" horiz-adv-x="540" 
d="M331 288v-158q0 -52 8 -77t43 -50v-3h-195v3q10 5 17.5 12.5t12 18t7.5 18.5t4 23t1.5 21.5t0 23t-0.5 20.5v148l-166 267q-17 28 -26.5 41.5t-27.5 31.5t-41 30h91q58 0 75 -28l160 -261l124 186q47 69 -16 100v3h175z" />
    <glyph glyph-name="Z" unicode="Z" horiz-adv-x="600" 
d="M536 0h-527l362 576l-170 10q-45 3 -77 -6.5t-73 -36.5h-3l51 115h442l-360 -574l210 -12q97 -5 198 55h3z" />
    <glyph glyph-name="bracketleft" unicode="[" horiz-adv-x="300" 
d="M51 658h220v-54h-101v-686h101v-54h-220v3q8 5 14.5 12t10 16.5t5.5 16.5t3 20t1 19v20.5v18.5v548q0 67 -11 90q-8 17 -23 27v3z" />
    <glyph glyph-name="backslash" unicode="\" horiz-adv-x="540" 
d="M149 658l315 -795h-74l-313 795h72z" />
    <glyph glyph-name="bracketright" unicode="]" horiz-adv-x="300" 
d="M246 -136h-220v54h101v686h-101v54h220v-3q-16 -11 -24 -31t-9 -35t-1 -42v-9v-548v-18.5v-20.5t1 -19t3 -20t5.5 -16.5t10 -16.5t14.5 -12v-3z" />
    <glyph glyph-name="asciicircum" unicode="^" horiz-adv-x="600" 
d="M123 258h-59l209 400h51l211 -400h-59l-179 346z" />
    <glyph glyph-name="underscore" unicode="_" horiz-adv-x="500" 
d="M0 -75h500v-50h-500v50z" />
    <glyph glyph-name="grave" unicode="`" horiz-adv-x="400" 
d="M121 642l217 -155l-272 81z" />
    <glyph glyph-name="a" unicode="a" horiz-adv-x="480" 
d="M490 53l-44 -66q-132 8 -132 104v158q-28 -15 -96 -31q-21 -5 -30 -7t-26 -9t-24.5 -14.5t-14.5 -21t-7 -31.5q0 -43 31.5 -62.5t77.5 -19.5q24 0 72 14l-59 -75q-28 -5 -52 -5q-75 0 -123 42t-48 105q0 52 31 82t74.5 41t87.5 18t75 22.5t31 45.5q0 32 -30.5 48
t-65.5 16q-50 0 -136 -40l67 100l65 6q90 0 140 -33.5t51 -118.5v-150q0 -66 13.5 -89t71.5 -29z" />
    <glyph glyph-name="b" unicode="b" horiz-adv-x="540" 
d="M33 658h62q49 0 63 16h3v-605q46 -12 83 -12q81 0 127 47t46 123t-38.5 124t-111.5 48q-42 0 -84 -22l54 85q32 11 71 11q88 0 149 -64t61 -164q0 -118 -80 -188t-216 -70q-56 0 -182 18v3q5 2 9 5t7 5.5t5 7t3.5 7t2.5 8.5t1.5 8.5t1 9.5t0.5 9v10v10v460v18.5v19
t-1 15.5t-3.5 16l-6.5 13t-10.5 14t-15.5 11v3z" />
    <glyph glyph-name="c" unicode="c" horiz-adv-x="460" 
d="M415 461v-103h-3q-43 49 -122 49q-73 0 -120 -46t-47 -117q0 -84 61 -137.5t147 -53.5q80 0 146 49h3l-52 -95q-52 -20 -132 -20q-116 0 -195 67t-79 164q0 123 82 189t203 66q56 0 108 -12z" />
    <glyph glyph-name="d" unicode="d" horiz-adv-x="580" 
d="M377 658h68q47 0 58 16h3v-564v-16.5v-16.5t0.5 -14.5t2 -14.5t4 -12.5t7 -12.5t10.5 -10.5t14 -9.5v-3h-129v214v17v18.5t-0.5 17t-1.5 18.5t-2.5 16.5t-4.5 17.5t-7 16q-18 35 -53 53.5t-76 18.5q-60 0 -102.5 -48t-42.5 -116q0 -78 50 -134t127 -56q40 0 86 29
l-59 -90q-17 -5 -52 -5q-111 0 -182 66t-71 176q0 102 67.5 173t169.5 71q88 0 154 -58v132v18.5v19t-1 16t-3.5 16.5l-6.5 13t-11 14t-16 11v3z" />
    <glyph glyph-name="e" unicode="e" horiz-adv-x="520" 
d="M500 246h-367q1 -90 57 -141.5t143 -51.5q96 0 164 53h3l-50 -94q-60 -25 -138 -25q-126 0 -206.5 70.5t-80.5 175.5t69.5 172.5t180.5 67.5q101 0 164.5 -65t60.5 -162zM137 304h258q-16 103 -129 103q-50 0 -85 -28t-44 -75z" />
    <glyph glyph-name="f" unicode="f" horiz-adv-x="260" 
d="M156 394v-249v-19v-20.5t1 -19.5t2.5 -21t4.5 -18t7.5 -18t11.5 -14t16 -12v-3h-172v3q9 5 16 11t11 14l6.5 13t3.5 16.5t1 15.5v18.5v18.5v284h-50l50 66v24q0 37 1 51t9 36.5t27 43.5q57 64 178 64l68 -6l-70 -77q-26 17 -51 17q-42 0 -56.5 -20t-14.5 -67v-66h116
l17 6h3v-88h-3q-10 16 -37 16h-96z" />
    <glyph glyph-name="g" unicode="g" horiz-adv-x="580" 
d="M273 473h301l-23 -52q-3 -7 -4.5 -9.5t-4 -6.5t-5 -5t-7 -2t-11.5 -1q-15 0 -103 13q71 -46 71 -121q0 -53 -36 -88.5t-80 -49t-97 -18.5q-13 -1 -27 -8.5t-14 -18.5q0 -19 60 -19q265 0 265 -146q0 -82 -80 -129t-201 -47q-114 0 -195.5 40t-81.5 102q0 40 27.5 60.5
t68.5 20.5q30 0 57 -13q-38 -8 -38 -45q0 -30 16 -50.5t43 -30.5t52.5 -14t53.5 -4q40 0 76.5 7.5t68.5 32t32 63.5q0 93 -204 93l-69 -2q-32 -1 -52.5 21t-20.5 50q0 10 10 19t21 14t27.5 11.5t20.5 8.5q-55 11 -93.5 55t-38.5 99q0 81 64.5 125.5t150.5 44.5zM159 319
q0 -48 37 -84t86 -36q45 0 74.5 27t29.5 70q0 48 -36 79.5t-89 31.5q-44 0 -73 -23t-29 -65z" />
    <glyph glyph-name="h" unicode="h" horiz-adv-x="540" 
d="M28 658h65q47 0 61 16h3v-264q21 30 63.5 46.5t83.5 16.5q96 0 133.5 -48.5t37.5 -131.5v-182v-16.5v-16.5t0.5 -14.5t2 -14.5t4 -12.5t7 -12.5t10.5 -10.5t14 -10.5v-3h-166v3q11 6 18 14t11 14t6 19t2.5 17.5t0 22t-0.5 21.5v152q0 144 -112 144q-63 0 -89 -34
t-26 -104v-158v-16.5v-16.5t0.5 -14.5t2 -14.5t4 -12.5t7 -12.5t10.5 -10.5t14 -10.5v-3h-167v3q9 5 16 11t11 14l6.5 13t3.5 16.5t1 15.5v19v19v436v16.5v16.5t-0.5 14.5t-2 14.5t-4 12.5t-7 12.5t-10.5 10.5t-14 10.5v3z" />
    <glyph glyph-name="i" unicode="i" horiz-adv-x="240" 
d="M33 460h61q47 0 65 16h3v-365v-16.5v-16.5t0.5 -14.5t2 -14.5t4 -12.5t7 -12.5t10.5 -10.5t14 -10.5v-3h-167v3q9 5 16 11t11 14l6.5 13t3.5 16.5t1 15.5v19v19v239v18.5v19t-1 16t-3.5 16t-6.5 13t-11 14t-16 10.5v3zM173 583q0 -25 -17.5 -44t-42.5 -19q-28 0 -46.5 19
t-18.5 47q0 25 19.5 42t45.5 17q25 0 42.5 -18.5t17.5 -43.5z" />
    <glyph glyph-name="j" unicode="j" horiz-adv-x="240" 
d="M176 582q0 -25 -18 -43.5t-43 -18.5q-27 0 -45 19t-18 46q0 26 19 43t45 17q24 0 42 -19t18 -44zM37 460h65q46 0 61 13h3v-484q0 -5 0.5 -25t0 -28t-2 -25t-4.5 -27t-9.5 -22.5t-15.5 -22.5q-27 -29 -74.5 -48t-84.5 -17v3q64 36 81.5 82.5t17.5 135.5v355v18.5v19
t-1 16t-3.5 16t-6.5 13t-11 14t-16 10.5v3z" />
    <glyph glyph-name="k" unicode="k" horiz-adv-x="480" 
d="M29 658h66q45 0 59 16h3v-563v-16.5v-16.5t0.5 -14.5t2 -14.5t4.5 -12.5t7 -12.5t10.5 -10.5t14.5 -10.5v-3h-167v3q9 5 15.5 11t10.5 14l6.5 13t3.5 16.5t1 16v19v18.5v436v18.5v19t-1 16t-3.5 16.5l-6.5 13t-10.5 14t-15.5 11v3zM324 56l-148 201l83 91q51 58 51 80
q0 18 -19 29v3h152l-167 -193l122 -155q2 -3 10 -13.5t11 -14t10 -13t11 -14t11 -12.5t12.5 -13t12.5 -11t14 -11l14 -10h-78q-63 0 -102 56z" />
    <glyph glyph-name="l" unicode="l" horiz-adv-x="240" 
d="M32 658h61q50 0 64 16h3v-563q0 -4 -0.5 -21.5t0 -22t2.5 -17.5t6 -19t11 -14t18 -14v-3h-165v3q9 5 15.5 11t10.5 14l6.5 13t3.5 16.5t1 16v19v18.5v436v18.5v19t-1 16t-3.5 16.5l-6.5 13t-10.5 14t-15.5 11v3z" />
    <glyph glyph-name="m" unicode="m" horiz-adv-x="860" 
d="M24 460h64q45 0 62 13h3v-79q27 41 59.5 60t81.5 19q101 0 156 -87q63 87 160 87q101 0 140 -52.5t39 -155.5v-154v-16v-17t1 -15.5t2.5 -16t4.5 -13t8 -13t12 -9.5t16 -8v-3h-173v3q9 5 16 11t11 14l6.5 13t3.5 16.5t1 15.5v19v19v129q0 167 -112 167q-64 0 -89.5 -38
t-25.5 -113v-145v-16.5v-16.5t0.5 -14.5t2 -14.5t4 -12.5t7 -12.5t10.5 -10.5t14 -10.5v-3h-167v3q9 5 16 11t11 14l6.5 13t3.5 16.5t1 15.5v19v19v138q0 75 -32.5 116.5t-81.5 41.5q-113 0 -113 -143v-153v-18.5v-19t1 -16t3.5 -16.5l6.5 -13t10.5 -14t15.5 -11v-3h-166v3
q9 5 16 11t11 14l6.5 13t3.5 16.5t1 15.5v19v19v239v18.5v19t-1 16t-3.5 16t-6.5 13t-11 14t-16 10.5v3z" />
    <glyph glyph-name="n" unicode="n" horiz-adv-x="540" 
d="M28 460h59q44 0 67 13h3v-77q56 77 141 77q45 0 87 -17.5t65 -51.5q5 -7 9 -16.5t6.5 -16.5t4.5 -19.5t3 -18.5t1.5 -21t0.5 -19v-20.5v-17.5v-145v-18.5v-19t1 -16t3.5 -16t6.5 -13t11 -14t16 -10.5v-3h-167v3q9 5 16 11t11 14l6.5 13t3.5 16.5t1 15.5v18.5v18.5v135
q0 83 -27.5 122.5t-93.5 39.5q-62 0 -84 -33t-22 -87v-177v-18.5v-19t1 -16t3.5 -16t6.5 -13t11 -14t16 -10.5v-3h-167v3q9 5 16 11t11 14l6.5 13t3.5 16.5t1 15.5v19v19v238v16.5v16.5t-0.5 14.5t-2 14.5t-4 12.5t-7 12.5t-10.5 10.5t-14 10.5v3z" />
    <glyph glyph-name="o" unicode="o" 
d="M276 -13q-105 0 -179 67.5t-74 171.5q0 110 77 178.5t188 68.5q100 0 167 -59q82 -72 82 -179q0 -106 -76.5 -177t-184.5 -71zM281 53q68 0 111.5 46.5t43.5 114.5q0 79 -41.5 136t-117.5 57q-68 0 -110.5 -47t-42.5 -116q0 -75 42.5 -133t114.5 -58z" />
    <glyph glyph-name="p" unicode="p" horiz-adv-x="580" 
d="M30 460h66q43 0 60 13h3v-71q24 33 71.5 52t92.5 19q102 0 165.5 -68.5t63.5 -169.5q0 -105 -68.5 -176.5t-172.5 -71.5q-41 0 -74 13l-54 82q60 -29 109 -29q77 0 118 46.5t41 124.5q0 75 -40 127t-113 52q-68 0 -111 -48q-14 -14 -20.5 -34t-7 -32.5t-0.5 -40.5v-343
v-18.5v-19t1 -16t3.5 -16t6.5 -13t11 -14t16 -10.5v-3h-167v3q9 5 16 10.5t11 14t6.5 13t3.5 16t1 16v19v18.5v445v16.5v16.5t-0.5 14.5t-2 14.5t-4 12.5t-7 12.5t-10.5 10.5t-14 9.5v3z" />
    <glyph glyph-name="q" unicode="q" horiz-adv-x="580" 
d="M413 -93v471q-51 16 -109 16q-78 0 -128 -44t-50 -120t51 -126.5t128 -50.5q48 0 81 18l-6 -11l-41 -62q-27 -11 -69 -11q-103 0 -174 61.5t-71 162.5q0 107 71.5 178t208.5 71h237v-3q-9 -5 -16 -10.5t-11 -14t-6.5 -13t-3.5 -16t-1 -16v-19v-18.5v-443v-18.5v-19t1 -16
t3.5 -16.5l6.5 -13t11 -14t16 -12v-3h-167v3q9 6 16 12t11 14l6.5 13t3.5 16.5t1 16v19v18.5z" />
    <glyph glyph-name="r" unicode="r" horiz-adv-x="320" 
d="M38 460h64q46 0 61 13h3v-76q17 34 49 55t69 21l36 -3v-92q-15 16 -46 16q-57 0 -82.5 -33t-25.5 -110v-140v-16.5v-16.5t0.5 -14.5t2 -14.5t4 -12.5t7 -12.5t10.5 -10.5t14 -10.5v-3h-167v3q9 5 16 11t11 14l6.5 13t3.5 16.5t1 15.5v19v19v239v18.5v19t-1 15.5t-3.5 16
l-6.5 13t-10.5 14t-15.5 11v3z" />
    <glyph glyph-name="s" unicode="s" horiz-adv-x="420" 
d="M345 460v-85q-59 32 -123 32q-14 0 -28.5 -2t-30 -7t-25 -15t-9.5 -24q0 -24 28 -40.5t67.5 -28.5t79.5 -27t68 -45.5t28 -74.5q0 -69 -63 -112.5t-161 -43.5q-71 0 -130 24l-35 98q88 -56 188 -56q40 0 75 15.5t35 49.5q0 28 -28 47t-67.5 31.5t-79.5 27.5t-68 44
t-28 71q0 50 32.5 81.5t73.5 42t90 10.5q64 0 111 -13z" />
    <glyph glyph-name="t" unicode="t" horiz-adv-x="320" 
d="M176 394v-200v-16q-1 -17 -0.5 -22.5t2.5 -22t5.5 -24.5t10.5 -21t17 -19t25.5 -11t34.5 -5q14 0 40 10l-53 -71q-17 -5 -32 -5q-23 0 -42 5t-32.5 12t-24.5 19t-18 22.5t-12 27t-7 26.5t-3.5 27t-1.5 24v22v14v208h-68v36q66 11 92.5 57t26.5 122h40v-149h94q28 0 38 6
h3v-91h-3l-6 6t-7 5l-7 3.5t-8.5 2t-8 1.5t-9 1h-8.5h-9.5h-8.5h-60z" />
    <glyph glyph-name="u" unicode="u" horiz-adv-x="540" 
d="M348 460h51q3 0 15.5 -0.5t18 0t14.5 1.5t15.5 4t11.5 8h3v-364v-16.5v-16.5t0.5 -14.5t2 -14.5t4 -12.5t7 -12t10.5 -10t14 -9.5v-3h-129v65q-27 -42 -59.5 -60t-84.5 -18q-88 0 -131 51t-43 157v154v16.5v16.5t-0.5 14.5t-2 14.5t-4 12.5t-7 12.5t-10.5 10.5t-14 10.5
v3h65q46 0 61 13h3v-261q0 -74 25.5 -111.5t87.5 -37.5q50 0 82 36.5t32 94.5v154v19v19t-1 16t-3.5 16.5t-6.5 13t-11 14.5t-16 11v3z" />
    <glyph glyph-name="v" unicode="v" horiz-adv-x="520" 
d="M-36 460h54h15h15.5t13.5 0.5t14.5 1.5t12 3.5t11.5 6.5h3q2 -19 16 -50l145 -323l115 247q10 21 14.5 33t7 29t-5.5 29t-27 20v3h142l-227 -478q-60 35 -76 52q-19 20 -33 52l-121 264q-3 6 -7.5 17t-6.5 15t-6 12.5t-6.5 12t-7.5 10t-10 10.5t-11.5 9.5t-15 10.5
t-18.5 10v3z" />
    <glyph glyph-name="w" unicode="w" horiz-adv-x="780" 
d="M-12 460h26q5 0 19 -0.5t21 0t18 1.5t19 4t15 8h3q2 -24 13 -52l117 -304l91 235q1 3 5 12.5t5.5 13.5t4 12.5t3 13.5t1.5 12.5t-1 12.5t-5 10.5t-8.5 10t-13.5 7.5v3h131v-15q0 -7 14 -46l103 -282l93 235q1 3 6 15t6.5 17t4.5 15.5t1.5 17t-4 14.5t-10 14.5t-18.5 11.5
v3h134l-199 -478q-49 26 -65 46t-36 73l-86 230l-137 -349q-53 28 -70.5 47t-37.5 72l-110 281q-9 22 -13.5 31.5t-14.5 22t-25 21.5v3z" />
    <glyph glyph-name="x" unicode="x" horiz-adv-x="520" 
d="M244 182l-94 -110q-9 -10 -11.5 -13.5t-8.5 -13.5t-5 -15.5t6 -13t17 -13.5v-3h-162v3l214 238l-103 134q-42 58 -85 82v3h76q56 0 88 -42l86 -115l65 77q10 12 15.5 20.5t10 20.5t-2 21t-23.5 15v3h166l-186 -214l109 -145q20 -26 31 -39t31 -32t40 -30h-108
q-33 0 -63 41z" />
    <glyph glyph-name="y" unicode="y" horiz-adv-x="500" 
d="M267 89l101 254q7 17 8.5 21t6 20t4 23t-1.5 18.5t-8 19t-19 12.5v3h140l-208 -496q-39 -93 -91 -130t-127 -37q-54 0 -119 25l90 65q37 -24 56 -24q25 0 45 11.5t34.5 34t22.5 39.5t19 45l6 16l-4 5q-6 6 -11 11.5t-8.5 9t-6.5 8.5t-5 7.5t-5 9t-4.5 9t-5.5 12t-6 13.5
l-122 266q-2 3 -6 12.5t-5.5 13t-5.5 11.5t-6 11t-6.5 10t-7.5 10l-8 8t-10 8t-11.5 6.5t-13.5 6.5v3h85q49 0 67 -40z" />
    <glyph glyph-name="z" unicode="z" horiz-adv-x="460" 
d="M423 0h-424v3l277 383l-103 8q-88 7 -141 -36h-3l50 102h354v-3l-263 -379l146 -12q81 -7 160 43h3z" />
    <glyph glyph-name="braceleft" unicode="{" horiz-adv-x="280" 
d="M168 160v-168q0 -45 15 -68t56 -36q-66 -2 -99 23q-34 24 -34 97v167q0 19 -0.5 26.5t-5 20t-13.5 23.5q-21 24 -54 30q45 11 59 32.5t14 68.5v147q0 78 27.5 108.5t105.5 26.5q-40 -11 -55.5 -35t-15.5 -67v-157q0 -55 -15.5 -84.5t-64.5 -39.5q47 -11 63.5 -38
t16.5 -77z" />
    <glyph glyph-name="bar" unicode="|" horiz-adv-x="600" 
d="M271 750h57v-1000h-57v1000z" />
    <glyph glyph-name="braceright" unicode="}" horiz-adv-x="280" 
d="M105 399v157q0 43 -15.5 67t-55.5 35q78 4 105.5 -26.5t27.5 -108.5v-147q0 -47 14 -68.5t59 -32.5q-33 -6 -54 -30q-9 -11 -13.5 -23.5t-5 -20t-0.5 -26.5v-167q0 -73 -34 -97q-33 -25 -99 -23q41 13 56 36t15 68v168q0 51 16.5 77.5t63.5 37.5q-49 10 -64.5 39.5
t-15.5 84.5z" />
    <glyph glyph-name="asciitilde" unicode="~" horiz-adv-x="600" 
d="M508 300l43 -27q-22 -30 -36.5 -47t-41 -32t-56.5 -15q-34 0 -93 23l-47 17q-62 24 -86 24q-33 0 -54.5 -19t-44.5 -55l-43 28q31 48 63.5 74t80.5 26q37 0 117 -32t106 -32q21 0 39 11t28 22.5t25 33.5z" />
    <glyph glyph-name="uni00A0" unicode="&#xa0;" horiz-adv-x="280" 
 />
    <glyph glyph-name="exclamdown" unicode="&#xa1;" horiz-adv-x="280" 
d="M79 411q0 25 18 43.5t43 18.5q28 0 45.5 -18.5t17.5 -46.5q0 -25 -19 -42t-45 -17q-24 0 -42 19t-18 43zM107 290h71l16 -375q3 -83 11 -99q8 -20 29 -26v-3h-122q-2 0 -6.5 -0.5t-7.5 -0.5t-6.5 0.5t-5.5 3t-2 6.5l1 20z" />
    <glyph glyph-name="cent" unicode="&#xa2;" 
d="M444 584v-92q-35 35 -88 35v-334q57 3 115 53h3l-25 -103q-31 -13 -93 -17v-93h-54v93q-96 12 -155 75.5t-59 156.5q0 90 61 158t153 77v97h54v-97q44 0 88 -9zM302 199v324q-61 -9 -92 -53t-31 -105q0 -60 32 -107.5t91 -58.5z" />
    <glyph glyph-name="sterling" unicode="&#xa3;" 
d="M308 372h113v-57h-78q25 -67 25 -109q0 -55 -32 -109q37 -14 59 -14q54 0 100 30v-107q-62 -22 -99 -22q-58 0 -121 45q-51 -45 -112 -45q-39 0 -67 20t-28 57q0 38 32.5 59.5t72.5 21.5q12 0 85 -13q11 21 11 56q0 49 -40 120l-5 10h-102v57h59q-20 28 -29 43.5
t-17 40.5t-8 52q0 77 55.5 121.5t134.5 44.5q53 0 125 -29l4 -102q-64 53 -119 53q-39 0 -69 -21.5t-30 -57.5q0 -14 8.5 -34t17 -33t24.5 -35.5t19 -27.5zM221 65q-25 21 -61 21q-14 0 -26.5 -7t-12.5 -20q0 -25 38 -25q40 0 62 31z" />
    <glyph glyph-name="currency" unicode="&#xa4;" 
d="M23 169l40 40q-34 60 -34 117q0 65 34 120l-40 40l70 72l41 -41q54 35 118 35q67 0 122 -35l41 41l69 -72l-41 -40q35 -53 35 -119q0 -68 -35 -118l41 -40l-69 -71l-41 40q-60 -35 -118 -35q-70 0 -122 35l-41 -40zM257 455q-55 0 -93 -37t-38 -92q0 -53 38.5 -89.5
t92.5 -36.5q51 0 87.5 38t36.5 90q0 51 -36.5 89t-87.5 38z" />
    <glyph glyph-name="yen" unicode="&#xa5;" 
d="M264 110v127h-210v54h210l-39 66h-171v54h137l-104 165q-38 62 -87 79v3h94q60 0 78 -31l159 -260l115 178q16 25 23 41t2.5 36.5t-29.5 32.5v3h166l-166 -247h132v-54h-162l-47 -66h209v-54h-209v-121q0 -23 1 -36t5.5 -29t15 -27.5t27.5 -20.5v-3h-200v3q18 7 29 17
t15 27.5t5 28t1 34.5z" />
    <glyph glyph-name="brokenbar" unicode="&#xa6;" horiz-adv-x="600" 
d="M271 675h57v-350h-57v350zM271 175h57v-350h-57v350z" />
    <glyph glyph-name="section" unicode="&#xa7;" horiz-adv-x="520" 
d="M428 651v-103q-38 57 -128 57q-39 0 -68 -16t-29 -52q0 -27 27 -47.5t65.5 -37.5t77.5 -37t66 -55.5t27 -84.5q0 -84 -74 -145q37 -39 37 -94q0 -87 -60 -136t-153 -49q-88 0 -158 31v105l10 -5q31 -18 48.5 -26.5t45 -16.5t54.5 -8q46 0 79.5 24t33.5 68q0 30 -27.5 55
t-67 44.5t-79.5 41t-67.5 56t-27.5 78.5q0 82 84 142q-38 32 -38 89q0 73 57 109t135 36q71 0 130 -23zM263 214l81 -46q34 34 34 81q0 28 -22 52t-47.5 38t-62.5 31t-51 26q-42 -35 -42 -73q0 -34 28 -59q13 -11 82 -50z" />
    <glyph glyph-name="dieresis" unicode="&#xa8;" horiz-adv-x="440" 
d="M189 582q0 -27 -18 -44.5t-45 -17.5q-24 0 -42 19.5t-18 44.5q0 27 19 44.5t46 17.5q24 0 41 -19.5t17 -44.5zM373 583q0 -28 -18 -45.5t-45 -17.5q-25 0 -42.5 19.5t-17.5 44.5q0 27 18.5 44.5t45.5 17.5q25 0 42 -19t17 -44z" />
    <glyph glyph-name="copyright" unicode="&#xa9;" horiz-adv-x="700" 
d="M347 -16q-141 0 -241.5 102t-100.5 244q0 143 101.5 243.5t244.5 100.5q141 0 242.5 -100.5t101.5 -241.5q0 -146 -101 -247t-247 -101zM351 34q122 0 206 85.5t84 207.5q0 126 -83.5 211.5t-208.5 85.5q-122 0 -206 -85.5t-84 -207.5q0 -125 84.5 -211t207.5 -86z
M481 258l56 -16q-19 -56 -71 -86.5t-115 -30.5q-89 0 -142.5 56.5t-53.5 144.5q0 92 57.5 152t149.5 60q60 0 112 -30t63 -84l-63 -14q-7 43 -38 66t-76 23q-68 0 -105.5 -49.5t-37.5 -119.5t36.5 -116.5t103.5 -46.5q94 0 124 91z" />
    <glyph glyph-name="ordfeminine" unicode="&#xaa;" horiz-adv-x="380" 
d="M321 439l-24 -37q-50 4 -62 19t-12 65v61q-16 -9 -54 -17q-16 -4 -22 -6t-17 -7.5t-15.5 -14t-4.5 -20.5q0 -45 61 -45q18 0 41 7l-33 -43q-15 -3 -30 -3q-40 0 -68.5 23t-28.5 61q0 35 26.5 53.5t58.5 21.5t58.5 13t26.5 30q0 18 -17 26.5t-37 8.5q-30 0 -78 -22l38 57
l37 4q66 0 93 -32q5 -7 8.5 -14.5t5 -18.5t2 -16.5t0 -20t-0.5 -16.5v-77q0 -40 48 -40z" />
    <glyph glyph-name="guillemotleft" unicode="&#xab;" horiz-adv-x="400" 
d="M205 247l104 161h31l-59 -161l59 -158h-31zM78 247l104 161h31l-59 -161l59 -158h-31z" />
    <glyph glyph-name="logicalnot" unicode="&#xac;" horiz-adv-x="600" 
d="M477 47v228h-411v56h467v-284h-56z" />
    <glyph glyph-name="uni00AD" unicode="&#xad;" horiz-adv-x="360" 
d="M207 211h-101q-54 0 -87 -12l-2 2l53 60q19 19 23 21q9 4 60 4h101q54 0 87 12l2 -2l-53 -60q-19 -19 -23 -21q-9 -4 -60 -4z" />
    <glyph glyph-name="registered" unicode="&#xae;" horiz-adv-x="700" 
d="M347 -16q-143 0 -242.5 102t-99.5 245t101.5 243t244.5 100t243 -101t100 -244q0 -144 -101.5 -244.5t-245.5 -100.5zM347 34q124 0 208.5 86t84.5 211q0 123 -85 208t-207 85q-121 0 -205 -85.5t-84 -206.5q0 -124 83 -211t205 -87zM417 314l118 -186h-68l-111 186h-89
v-186h-58v411h185q69 0 108.5 -24t39.5 -89q0 -55 -33.5 -82.5t-91.5 -29.5zM267 358h106q23 0 40 2.5t34.5 9t27 22t9.5 38.5q0 28 -17.5 43.5t-37 18.5t-49.5 3h-113v-137z" />
    <glyph glyph-name="macron" unicode="&#xaf;" horiz-adv-x="500" 
d="M66 581v65h364v-65h-364z" />
    <glyph glyph-name="degree" unicode="&#xb0;" horiz-adv-x="400" 
d="M350 524q0 -62 -44 -106t-106 -44t-106 44t-44 106q-1 62 43.5 106t106.5 44t106 -44t44 -106zM310 524q0 45 -32.5 77.5t-78.5 32.5q-45 0 -77.5 -32.5t-31.5 -77.5q0 -46 32 -78t78 -32q45 0 77.5 32t32.5 78z" />
    <glyph glyph-name="plusminus" unicode="&#xb1;" horiz-adv-x="600" 
d="M66 318h205v150h56v-150h205v-56h-205v-150h-56v150h-205v56zM66 0v56h466v-56h-466z" />
    <glyph glyph-name="twosuperior" unicode="&#xb2;" horiz-adv-x="336" 
d="M309 270h-298l164 219q1 2 13 17.5t16 21.5t9.5 18.5t5.5 23.5q0 26 -22 41.5t-51 15.5q-51 0 -112 -38h-2l39 73q46 12 85 12q56 0 96.5 -25t40.5 -64q0 -32 -27 -72l-142 -194l85 -6q79 0 134 27h2z" />
    <glyph glyph-name="threesuperior" unicode="&#xb3;" horiz-adv-x="336" 
d="M93 459v49l30 -1q43 -3 70.5 15t27.5 45q0 28 -25.5 44t-56.5 16q-48 0 -99 -30h-2l27 64q39 13 86 13q52 0 95 -24t43 -70q0 -32 -22 -53.5t-57 -29.5v-2q49 -7 80.5 -33.5t31.5 -70.5q0 -48 -35 -79t-79.5 -41.5t-94.5 -10.5l-67 5l-32 72h2q58 -30 118 -30
q45 0 79.5 22.5t34.5 63.5q0 72 -103 72q-27 0 -52 -6z" />
    <glyph glyph-name="acute" unicode="&#xb4;" horiz-adv-x="400" 
d="M66 493l217 155l55 -73z" />
    <glyph glyph-name="mu" unicode="&#xb5;" horiz-adv-x="540" 
d="M386 0v65q-27 -42 -59.5 -60t-84.5 -18q-47 0 -81 14l3 -78q3 -83 11 -99q8 -20 29 -26v-3h-122q-28 0 -28 9q0 4 0.5 10t0.5 10l15 333q-2 24 -2 38v154v16.5v16.5t-0.5 14.5t-2 14.5t-4 12.5t-7 12.5t-10.5 10.5t-14 10.5v3h65q46 0 61 13h3v-261q0 -74 25.5 -111.5
t87.5 -37.5q50 0 82 36.5t32 94.5v154v19v19t-1 16t-3.5 16.5t-6.5 13t-11 14.5t-16 11v3h51q3 0 15.5 -0.5t18 0t14.5 1.5t15.5 4t11.5 8h3v-364v-16.5v-16.5t0.5 -14.5t2 -14.5t4 -12.5t7 -12t10.5 -10t14 -9.5v-3h-129z" />
    <glyph glyph-name="paragraph" unicode="&#xb6;" horiz-adv-x="540" 
d="M390 586h-93v-699h-118v3q9 5 16 10.5t11 14t6.5 13t3.5 16t1 16v19v18.5v298q-75 -2 -129.5 52t-54.5 129q0 94 59 138t157 44h259v-3q-9 -5 -16 -10.5t-11 -14t-6.5 -13t-3.5 -16t-1 -16v-19v-18.5v-551v-18.5v-19t1 -16t3.5 -16t6.5 -13t11 -14t16 -10.5v-3h-118v699z
" />
    <glyph glyph-name="periodcentered" unicode="&#xb7;" horiz-adv-x="280" 
d="M202 235q0 -26 -18 -44.5t-43 -18.5q-27 0 -45 19t-18 47q0 25 19 41.5t45 16.5q24 0 42 -18.5t18 -42.5z" />
    <glyph glyph-name="cedilla" unicode="&#xb8;" horiz-adv-x="320" 
d="M184 0l-21 -53l24 3q30 0 51.5 -15.5t21.5 -44.5q0 -34 -26.5 -54t-60.5 -20q-63 0 -107 35l30 39q36 -30 67 -30q36 0 36 29q0 25 -30 25q-9 0 -25 -4l-28 37l21 53h47z" />
    <glyph glyph-name="onesuperior" unicode="&#xb9;" horiz-adv-x="336" 
d="M63 586v3q43 13 79.5 40.5t58.5 63.5h3v-339v-7q0 -20 1 -30t8.5 -22.5t22.5 -21.5v-3h-136v3q14 6 22.5 13.5t11.5 21t3.5 20t0.5 26.5v232h-75z" />
    <glyph glyph-name="ordmasculine" unicode="&#xba;" horiz-adv-x="380" 
d="M190 674q60 0 101 -39.5t41 -99.5q0 -58 -44.5 -97.5t-103.5 -39.5q-60 0 -102 38.5t-42 97.5q0 62 43.5 101t106.5 39zM185 636q-39 0 -63.5 -26.5t-24.5 -65.5q0 -42 24.5 -75t65.5 -33q39 0 63.5 26.5t24.5 65.5q0 44 -23.5 76t-66.5 32z" />
    <glyph glyph-name="guillemotright" unicode="&#xbb;" horiz-adv-x="400" 
d="M203 250l-105 -161h-30l59 161l-59 158h30zM330 250l-104 -161h-31l59 161l-59 158h31z" />
    <glyph glyph-name="onequarter" unicode="&#xbc;" horiz-adv-x="840" 
d="M654 82h-226l202 313h90v-266q48 0 82 25l-31 -72h-51v-12q0 -18 1 -27.5t7.5 -21.5t19.5 -18v-3h-126v3q7 2 12 5t8.5 5t5.5 7t3.5 7t2 9t0.5 9v10.5v10.5v16zM654 129v223l-137 -219q68 -4 137 -4zM591 658l-323 -658h-60l324 658h59zM138 580h-75v3q43 13 79.5 40.5
t58.5 63.5h3v-339v-7q0 -20 1 -30t8.5 -22.5t22.5 -21.5v-3h-136v3q14 6 22.5 13.5t11.5 21t3.5 20t0.5 26.5v232z" />
    <glyph glyph-name="onehalf" unicode="&#xbd;" horiz-adv-x="840" 
d="M591 658l-323 -658h-60l324 658h59zM63 580v3q43 13 79.5 40.5t58.5 63.5h3v-339v-7q0 -20 1 -30t8.5 -22.5t22.5 -21.5v-3h-136v3q14 6 22.5 13.5t11.5 21t3.5 20t0.5 26.5v232h-75zM788 0h-298l164 219q1 2 13 17.5t16 21.5t9.5 18.5t5.5 23.5q0 26 -22 41.5t-51 15.5
q-51 0 -112 -38h-2l39 73q46 12 85 12q56 0 96.5 -25t40.5 -64q0 -32 -27 -72l-142 -194l85 -6q79 0 134 27h2z" />
    <glyph glyph-name="threequarters" unicode="&#xbe;" horiz-adv-x="840" 
d="M674 82h-226l202 313h90v-266q48 0 82 25l-31 -72h-51v-12q0 -18 1 -27.5t7.5 -21.5t19.5 -18v-3h-126v3q7 2 12 5t8.5 5t5.5 7t3.5 7t2 9t0.5 9v10.5v10.5v16zM674 129v223l-137 -219q68 -4 137 -4zM611 658l-323 -658h-60l324 658h59zM93 453v49l30 -1q43 -3 70.5 15
t27.5 45q0 28 -25.5 44t-56.5 16q-48 0 -99 -30h-2l27 64q39 13 86 13q52 0 95 -24t43 -70q0 -32 -22 -53.5t-57 -29.5v-2q49 -7 80.5 -33.5t31.5 -70.5q0 -48 -35 -79t-79.5 -41.5t-94.5 -10.5l-67 5l-32 72h2q58 -30 118 -30q45 0 79.5 22.5t34.5 63.5q0 72 -103 72
q-27 0 -52 -6z" />
    <glyph glyph-name="questiondown" unicode="&#xbf;" horiz-adv-x="480" 
d="M225 411q0 25 18 43.5t43 18.5q28 0 45.5 -18.5t17.5 -46.5q0 -25 -19 -42t-45 -17q-24 0 -42 19t-18 43zM255 302l78 9q5 -22 5 -38q0 -38 -17.5 -69.5t-43 -54l-51 -45t-43 -52.5t-17.5 -65q0 -58 42 -93.5t101 -35.5q52 0 134 42l-57 -93q-46 -21 -100 -21
q-88 0 -154.5 47t-66.5 131q0 56 26 94.5t78 85.5q6 5 23 20t29 26.5t21 22.5q18 22 18 54q0 17 -5 35z" />
    <glyph glyph-name="Agrave" unicode="&#xc0;" horiz-adv-x="720" 
d="M473 247h-252l-52 -141q-18 -41 -15.5 -65.5t35.5 -37.5v-3h-184v3q9 5 17.5 10.5t16 13t12.5 13t11 16.5t9.5 15.5t9 18t7 17.5t7.5 19.5t7 18.5l167 417q20 51 14 68q-7 18 -29 25v3h158l208 -513q1 -3 7 -18.5t8 -19.5t7.5 -17t9 -18.5t9.5 -16t11.5 -16t12.5 -13
t15.5 -13t17.5 -10.5v-3h-205v3q35 16 35.5 33.5t-21.5 69.5zM444 321l-98 252l-99 -252h197zM281 840l217 -155l-272 81z" />
    <glyph glyph-name="Aacute" unicode="&#xc1;" horiz-adv-x="720" 
d="M473 247h-252l-52 -141q-18 -41 -15.5 -65.5t35.5 -37.5v-3h-184v3q9 5 17.5 10.5t16 13t12.5 13t11 16.5t9.5 15.5t9 18t7 17.5t7.5 19.5t7 18.5l167 417q20 51 14 68q-7 18 -29 25v3h158l208 -513q1 -3 7 -18.5t8 -19.5t7.5 -17t9 -18.5t9.5 -16t11.5 -16t12.5 -13
t15.5 -13t17.5 -10.5v-3h-205v3q35 16 35.5 33.5t-21.5 69.5zM444 321l-98 252l-99 -252h197zM242 691l217 155l55 -73z" />
    <glyph glyph-name="Acircumflex" unicode="&#xc2;" horiz-adv-x="720" 
d="M473 247h-252l-52 -141q-18 -41 -15.5 -65.5t35.5 -37.5v-3h-184v3q9 5 17.5 10.5t16 13t12.5 13t11 16.5t9.5 15.5t9 18t7 17.5t7.5 19.5t7 18.5l167 417q20 51 14 68q-7 18 -29 25v3h158l208 -513q1 -3 7 -18.5t8 -19.5t7.5 -17t9 -18.5t9.5 -16t11.5 -16t12.5 -13
t15.5 -13t17.5 -10.5v-3h-205v3q35 16 35.5 33.5t-21.5 69.5zM444 321l-98 252l-99 -252h197zM361 845l161 -153q-66 0 -161 60q-87 -59 -165 -60z" />
    <glyph glyph-name="Atilde" unicode="&#xc3;" horiz-adv-x="720" 
d="M473 247h-252l-52 -141q-18 -41 -15.5 -65.5t35.5 -37.5v-3h-184v3q9 5 17.5 10.5t16 13t12.5 13t11 16.5t9.5 15.5t9 18t7 17.5t7.5 19.5t7 18.5l167 417q20 51 14 68q-7 18 -29 25v3h158l208 -513q1 -3 7 -18.5t8 -19.5t7.5 -17t9 -18.5t9.5 -16t11.5 -16t12.5 -13
t15.5 -13t17.5 -10.5v-3h-205v3q35 16 35.5 33.5t-21.5 69.5zM444 321l-98 252l-99 -252h197zM537 835q-2 -5 -9.5 -26t-10.5 -28t-11.5 -22t-16.5 -21t-21.5 -11.5t-30.5 -5.5q-34 0 -89 11q-58 10 -89 10q-36 0 -72 -26q2 4 10 26.5t12.5 29.5t14 20.5t22 18t30.5 4.5
q20 0 78 -9q50 -10 77 -10q71 0 106 39z" />
    <glyph glyph-name="Adieresis" unicode="&#xc4;" horiz-adv-x="720" 
d="M473 247h-252l-52 -141q-18 -41 -15.5 -65.5t35.5 -37.5v-3h-184v3q9 5 17.5 10.5t16 13t12.5 13t11 16.5t9.5 15.5t9 18t7 17.5t7.5 19.5t7 18.5l167 417q20 51 14 68q-7 18 -29 25v3h158l208 -513q1 -3 7 -18.5t8 -19.5t7.5 -17t9 -18.5t9.5 -16t11.5 -16t12.5 -13
t15.5 -13t17.5 -10.5v-3h-205v3q35 16 35.5 33.5t-21.5 69.5zM444 321l-98 252l-99 -252h197zM329 780q0 -27 -18 -44.5t-45 -17.5q-24 0 -42 19.5t-18 44.5q0 27 19 44.5t46 17.5q24 0 41 -19.5t17 -44.5zM513 781q0 -28 -18 -45.5t-45 -17.5q-25 0 -42.5 19.5t-17.5 44.5
q0 27 18.5 44.5t45.5 17.5q25 0 42 -19t17 -44z" />
    <glyph glyph-name="Aring" unicode="&#xc5;" horiz-adv-x="720" 
d="M473 247h-252l-52 -141q-18 -41 -15.5 -65.5t35.5 -37.5v-3h-184v3q9 5 17.5 10.5t16 13t12.5 13t11 16.5t9.5 15.5t9 18t7 17.5t7.5 19.5t7 18.5l167 417q20 51 14 68q-7 18 -29 25v3h158l208 -513q1 -3 7 -18.5t8 -19.5t7.5 -17t9 -18.5t9.5 -16t11.5 -16t12.5 -13
t15.5 -13t17.5 -10.5v-3h-205v3q35 16 35.5 33.5t-21.5 69.5zM444 321l-98 252l-99 -252h197zM452 793q0 -40 -27.5 -67t-67.5 -27q-37 0 -63.5 27.5t-26.5 65.5t27 65t65 27t65.5 -26.5t27.5 -64.5zM304 792q0 -25 15.5 -40.5t38.5 -15.5q25 0 41 15t16 39q0 25 -15.5 41
t-40.5 16t-40 -15.5t-15 -39.5z" />
    <glyph glyph-name="AE" unicode="&#xc6;" horiz-adv-x="920" 
d="M825 664v-118h-3q-33 40 -118 40q-64 0 -101 -7v-186h119q32 0 43 6h3v-106h-3q-14 28 -88 28h-74v-237l127 -12q106 -9 186 58h3l-46 -130h-416v3q9 3 16 9.5t12 13t8 17.5t4.5 18t2.5 21t1 19.5v20.5v18v181h-162l-159 -220q-29 -40 -31 -55q-3 -24 30 -43v-3h-202v3
q12 6 22.5 13.5t22 19l18 18t20 23t16.5 20t18 24t16 21.5l311 416q11 14 15 20.5t12 18.5t9 18.5t1.5 15t-6 14.5t-17.5 10v3h341q36 0 46 6h3zM501 393v162l-110 -162h110z" />
    <glyph glyph-name="Ccedilla" unicode="&#xc7;" horiz-adv-x="600" 
d="M553 649v-115q-90 57 -185 57q-103 0 -168.5 -68.5t-65.5 -177.5q0 -114 71 -196t183 -82q103 0 213 63h3l-51 -116q-64 -30 -151 -30q-44 0 -82 6l-17 -43l24 3q30 0 51.5 -15.5t21.5 -44.5q0 -34 -26.5 -54t-60.5 -20q-63 0 -107 35l30 39q36 -30 67 -30q36 0 36 29
q0 25 -30 25q-9 0 -25 -4l-28 37l20 51q-121 30 -188.5 117t-67.5 215q0 154 98 249t253 95q77 0 182 -25z" />
    <glyph glyph-name="Egrave" unicode="&#xc8;" horiz-adv-x="520" 
d="M189 321v-237l127 -12q107 -10 185 59h3l-45 -131h-417v3q9 3 16.5 9.5t12 13t8 17.5t5 18t2.5 21t1 19.5v21v17.5v377v18v20.5t-1 20t-2.5 21t-5 18t-8 18t-12 13t-16.5 9.5v3h320q38 0 47 5h3v-117h-3q-34 40 -118 40q-65 0 -102 -7v-186h119q32 0 44 6h3v-106h-3
q-7 13 -24.5 20t-29.5 7.5t-35 0.5h-74zM181 840l217 -155l-272 81z" />
    <glyph glyph-name="Eacute" unicode="&#xc9;" horiz-adv-x="520" 
d="M189 321v-237l127 -12q107 -10 185 59h3l-45 -131h-417v3q9 3 16.5 9.5t12 13t8 17.5t5 18t2.5 21t1 19.5v21v17.5v377v18v20.5t-1 20t-2.5 21t-5 18t-8 18t-12 13t-16.5 9.5v3h320q38 0 47 5h3v-117h-3q-34 40 -118 40q-65 0 -102 -7v-186h119q32 0 44 6h3v-106h-3
q-7 13 -24.5 20t-29.5 7.5t-35 0.5h-74zM156 691l217 155l55 -73z" />
    <glyph glyph-name="Ecircumflex" unicode="&#xca;" horiz-adv-x="520" 
d="M189 321v-237l127 -12q107 -10 185 59h3l-45 -131h-417v3q9 3 16.5 9.5t12 13t8 17.5t5 18t2.5 21t1 19.5v21v17.5v377v18v20.5t-1 20t-2.5 21t-5 18t-8 18t-12 13t-16.5 9.5v3h320q38 0 47 5h3v-117h-3q-34 40 -118 40q-65 0 -102 -7v-186h119q32 0 44 6h3v-106h-3
q-7 13 -24.5 20t-29.5 7.5t-35 0.5h-74zM261 845l161 -153q-66 0 -161 60q-87 -59 -165 -60z" />
    <glyph glyph-name="Edieresis" unicode="&#xcb;" horiz-adv-x="520" 
d="M189 321v-237l127 -12q107 -10 185 59h3l-45 -131h-417v3q9 3 16.5 9.5t12 13t8 17.5t5 18t2.5 21t1 19.5v21v17.5v377v18v20.5t-1 20t-2.5 21t-5 18t-8 18t-12 13t-16.5 9.5v3h320q38 0 47 5h3v-117h-3q-34 40 -118 40q-65 0 -102 -7v-186h119q32 0 44 6h3v-106h-3
q-7 13 -24.5 20t-29.5 7.5t-35 0.5h-74zM229 780q0 -27 -18 -44.5t-45 -17.5q-24 0 -42 19.5t-18 44.5q0 27 19 44.5t46 17.5q24 0 41 -19.5t17 -44.5zM413 781q0 -28 -18 -45.5t-45 -17.5q-25 0 -42.5 19.5t-17.5 44.5q0 27 18.5 44.5t45.5 17.5q25 0 42 -19t17 -44z" />
    <glyph glyph-name="Igrave" unicode="&#xcc;" horiz-adv-x="260" 
d="M81 140v377q0 3 0.5 20.5t0 24t-1.5 22.5t-4 24t-8 19t-12.5 17.5t-18.5 10.5v3h190v-3q-9 -3 -16 -9.5t-12 -13t-8 -18t-4.5 -18.5t-2.5 -21t-1 -19.5v-20.5v-18v-377v-18v-20.5t1 -19.5t2.5 -21t4.5 -18t8 -17.5t12 -13t16 -9.5v-3h-190v3q9 3 16 9.5t12 13t8 17.5
t4.5 18t2.5 21t1 19.5v20.5v18zM51 840l217 -155l-272 81z" />
    <glyph glyph-name="Iacute" unicode="&#xcd;" horiz-adv-x="260" 
d="M81 140v377q0 3 0.5 20.5t0 24t-1.5 22.5t-4 24t-8 19t-12.5 17.5t-18.5 10.5v3h190v-3q-9 -3 -16 -9.5t-12 -13t-8 -18t-4.5 -18.5t-2.5 -21t-1 -19.5v-20.5v-18v-377v-18v-20.5t1 -19.5t2.5 -21t4.5 -18t8 -17.5t12 -13t16 -9.5v-3h-190v3q9 3 16 9.5t12 13t8 17.5
t4.5 18t2.5 21t1 19.5v20.5v18zM-4 691l217 155l55 -73z" />
    <glyph glyph-name="Icircumflex" unicode="&#xce;" horiz-adv-x="260" 
d="M81 140v377q0 3 0.5 20.5t0 24t-1.5 22.5t-4 24t-8 19t-12.5 17.5t-18.5 10.5v3h190v-3q-9 -3 -16 -9.5t-12 -13t-8 -18t-4.5 -18.5t-2.5 -21t-1 -19.5v-20.5v-18v-377v-18v-20.5t1 -19.5t2.5 -21t4.5 -18t8 -17.5t12 -13t16 -9.5v-3h-190v3q9 3 16 9.5t12 13t8 17.5
t4.5 18t2.5 21t1 19.5v20.5v18zM131 845l161 -153q-66 0 -161 60q-87 -59 -165 -60z" />
    <glyph glyph-name="Idieresis" unicode="&#xcf;" horiz-adv-x="260" 
d="M81 140v377q0 3 0.5 20.5t0 24t-1.5 22.5t-4 24t-8 19t-12.5 17.5t-18.5 10.5v3h190v-3q-9 -3 -16 -9.5t-12 -13t-8 -18t-4.5 -18.5t-2.5 -21t-1 -19.5v-20.5v-18v-377v-18v-20.5t1 -19.5t2.5 -21t4.5 -18t8 -17.5t12 -13t16 -9.5v-3h-190v3q9 3 16 9.5t12 13t8 17.5
t4.5 18t2.5 21t1 19.5v20.5v18zM99 780q0 -27 -18 -44.5t-45 -17.5q-24 0 -42 19.5t-18 44.5q0 27 19 44.5t46 17.5q24 0 41 -19.5t17 -44.5zM283 781q0 -28 -18 -45.5t-45 -17.5q-25 0 -42.5 19.5t-17.5 44.5q0 27 18.5 44.5t45.5 17.5q25 0 42 -19t17 -44z" />
    <glyph glyph-name="Eth" unicode="&#xd0;" horiz-adv-x="680" 
d="M182 575v-182h217v-62h-217v-252q34 -7 73 -7q120 0 201 64t81 187q0 130 -69 196.5t-196 66.5q-43 0 -90 -11zM80 126v205h-53v62h53v140q0 63 -8.5 87.5t-35.5 34.5v3h245q171 0 270.5 -87t99.5 -236q0 -148 -104 -241.5t-271 -93.5h-240v3q24 17 34 42.5t10 80.5z" />
    <glyph glyph-name="Ntilde" unicode="&#xd1;" horiz-adv-x="720" 
d="M158 517v-387q0 -23 0.5 -32.5t3 -26.5t7.5 -26.5t15.5 -21t25.5 -20.5v-3h-177v3q19 11 30.5 24t16 31.5t5.5 31.5t1 40v399q0 27 -1 40t-5.5 31.5t-15.5 31t-30 23.5v3h146v-1q4 -13 15 -25l14 -20l366 -462v379q0 28 -1 40.5t-5 31t-15.5 31t-30.5 23.5v3h176v-3
q-19 -11 -30 -23.5t-15.5 -31t-5.5 -31.5t-1 -40v-561q-50 17 -79.5 41.5t-66.5 72.5zM537 835q-2 -5 -9.5 -26t-10.5 -28t-11.5 -22t-16.5 -21t-21.5 -11.5t-30.5 -5.5q-34 0 -89 11q-58 10 -89 10q-36 0 -72 -26q2 4 10 26.5t12.5 29.5t14 20.5t22 18t30.5 4.5q20 0 78 -9
q50 -10 77 -10q71 0 106 39z" />
    <glyph glyph-name="Ograve" unicode="&#xd2;" horiz-adv-x="780" 
d="M398 675q102 0 185 -47t128 -124.5t45 -167.5q0 -151 -108 -251.5t-260 -100.5t-258.5 98t-106.5 249q0 144 109.5 246t265.5 98zM391 603q-115 0 -184.5 -74t-69.5 -189q0 -111 71.5 -197.5t184.5 -86.5q112 0 180.5 73.5t68.5 186.5q0 116 -69 201.5t-182 85.5z
M311 840l217 -155l-272 81z" />
    <glyph glyph-name="Oacute" unicode="&#xd3;" horiz-adv-x="780" 
d="M398 675q102 0 185 -47t128 -124.5t45 -167.5q0 -151 -108 -251.5t-260 -100.5t-258.5 98t-106.5 249q0 144 109.5 246t265.5 98zM391 603q-115 0 -184.5 -74t-69.5 -189q0 -111 71.5 -197.5t184.5 -86.5q112 0 180.5 73.5t68.5 186.5q0 116 -69 201.5t-182 85.5z
M286 691l217 155l55 -73z" />
    <glyph glyph-name="Ocircumflex" unicode="&#xd4;" horiz-adv-x="780" 
d="M398 675q102 0 185 -47t128 -124.5t45 -167.5q0 -151 -108 -251.5t-260 -100.5t-258.5 98t-106.5 249q0 144 109.5 246t265.5 98zM391 603q-115 0 -184.5 -74t-69.5 -189q0 -111 71.5 -197.5t184.5 -86.5q112 0 180.5 73.5t68.5 186.5q0 116 -69 201.5t-182 85.5z
M391 845l161 -153q-66 0 -161 60q-87 -59 -165 -60z" />
    <glyph glyph-name="Otilde" unicode="&#xd5;" horiz-adv-x="780" 
d="M398 675q102 0 185 -47t128 -124.5t45 -167.5q0 -151 -108 -251.5t-260 -100.5t-258.5 98t-106.5 249q0 144 109.5 246t265.5 98zM391 603q-115 0 -184.5 -74t-69.5 -189q0 -111 71.5 -197.5t184.5 -86.5q112 0 180.5 73.5t68.5 186.5q0 116 -69 201.5t-182 85.5z
M567 835q-2 -5 -9.5 -26t-10.5 -28t-11.5 -22t-16.5 -21t-21.5 -11.5t-30.5 -5.5q-34 0 -89 11q-58 10 -89 10q-36 0 -72 -26q2 4 10 26.5t12.5 29.5t14 20.5t22 18t30.5 4.5q20 0 78 -9q50 -10 77 -10q71 0 106 39z" />
    <glyph glyph-name="Odieresis" unicode="&#xd6;" horiz-adv-x="780" 
d="M398 675q102 0 185 -47t128 -124.5t45 -167.5q0 -151 -108 -251.5t-260 -100.5t-258.5 98t-106.5 249q0 144 109.5 246t265.5 98zM391 603q-115 0 -184.5 -74t-69.5 -189q0 -111 71.5 -197.5t184.5 -86.5q112 0 180.5 73.5t68.5 186.5q0 116 -69 201.5t-182 85.5z
M359 780q0 -27 -18 -44.5t-45 -17.5q-24 0 -42 19.5t-18 44.5q0 27 19 44.5t46 17.5q24 0 41 -19.5t17 -44.5zM543 781q0 -28 -18 -45.5t-45 -17.5q-25 0 -42.5 19.5t-17.5 44.5q0 27 18.5 44.5t45.5 17.5q25 0 42 -19t17 -44z" />
    <glyph glyph-name="multiply" unicode="&#xd7;" horiz-adv-x="600" 
d="M105 0l-40 40l194 194l-194 194l40 40l194 -194l194 194l40 -40l-194 -194l194 -194l-40 -40l-194 194z" />
    <glyph glyph-name="Oslash" unicode="&#xd8;" horiz-adv-x="780" 
d="M298 -8l-28 -85h-67l34 104q-97 43 -155.5 126.5t-58.5 187.5q0 149 110 249t261 100l68 -4l32 95h66l-37 -107q106 -33 170 -123t64 -202q0 -68 -26 -128t-66.5 -101t-90 -70t-98 -41.5t-88.5 -8.5zM265 91l172 506q-25 5 -45 5q-111 0 -183 -72.5t-72 -183.5
q0 -74 34 -148t94 -107zM498 579l-175 -513q31 -10 68 -10q116 0 184 74t68 190q0 80 -39 152.5t-106 106.5z" />
    <glyph glyph-name="Ugrave" unicode="&#xd9;" horiz-adv-x="680" 
d="M496 0v66q-31 -41 -85 -61.5t-111 -20.5q-117 0 -181 70q-25 27 -36.5 64t-13 60t-1.5 73v267q0 3 0.5 20.5t0 24t-1.5 22t-4 23.5t-8 19t-12.5 17.5t-18.5 10.5v3h190v-3q-9 -3 -16 -9.5t-12 -13t-8 -17.5t-4.5 -18t-2.5 -21t-1 -19.5v-20.5v-18v-267q0 -195 159 -195
q97 0 146 70q10 14 15 30.5t5.5 26.5t0.5 34v301v18v20.5t-1 19.5t-2.5 21t-4.5 18t-8 17.5t-12 13t-16 9.5v3h190l1 -3q-9 -3 -16.5 -9.5t-12 -13t-8 -18t-5 -18t-2.5 -21t-1 -20v-20.5v-18v-377v-17.5v-21t1 -19.5t2.5 -20.5t5 -18t8 -18t12 -13t16.5 -9.5v-3h-147z
M291 840l217 -155l-272 81z" />
    <glyph glyph-name="Uacute" unicode="&#xda;" horiz-adv-x="680" 
d="M496 0v66q-31 -41 -85 -61.5t-111 -20.5q-117 0 -181 70q-25 27 -36.5 64t-13 60t-1.5 73v267q0 3 0.5 20.5t0 24t-1.5 22t-4 23.5t-8 19t-12.5 17.5t-18.5 10.5v3h190v-3q-9 -3 -16 -9.5t-12 -13t-8 -17.5t-4.5 -18t-2.5 -21t-1 -19.5v-20.5v-18v-267q0 -195 159 -195
q97 0 146 70q10 14 15 30.5t5.5 26.5t0.5 34v301v18v20.5t-1 19.5t-2.5 21t-4.5 18t-8 17.5t-12 13t-16 9.5v3h190l1 -3q-9 -3 -16.5 -9.5t-12 -13t-8 -18t-5 -18t-2.5 -21t-1 -20v-20.5v-18v-377v-17.5v-21t1 -19.5t2.5 -20.5t5 -18t8 -18t12 -13t16.5 -9.5v-3h-147z
M206 691l217 155l55 -73z" />
    <glyph glyph-name="Ucircumflex" unicode="&#xdb;" horiz-adv-x="680" 
d="M496 0v66q-31 -41 -85 -61.5t-111 -20.5q-117 0 -181 70q-25 27 -36.5 64t-13 60t-1.5 73v267q0 3 0.5 20.5t0 24t-1.5 22t-4 23.5t-8 19t-12.5 17.5t-18.5 10.5v3h190v-3q-9 -3 -16 -9.5t-12 -13t-8 -17.5t-4.5 -18t-2.5 -21t-1 -19.5v-20.5v-18v-267q0 -195 159 -195
q97 0 146 70q10 14 15 30.5t5.5 26.5t0.5 34v301v18v20.5t-1 19.5t-2.5 21t-4.5 18t-8 17.5t-12 13t-16 9.5v3h190l1 -3q-9 -3 -16.5 -9.5t-12 -13t-8 -18t-5 -18t-2.5 -21t-1 -20v-20.5v-18v-377v-17.5v-21t1 -19.5t2.5 -20.5t5 -18t8 -18t12 -13t16.5 -9.5v-3h-147z
M341 845l161 -153q-66 0 -161 60q-87 -59 -165 -60z" />
    <glyph glyph-name="Udieresis" unicode="&#xdc;" horiz-adv-x="680" 
d="M496 0v66q-31 -41 -85 -61.5t-111 -20.5q-117 0 -181 70q-25 27 -36.5 64t-13 60t-1.5 73v267q0 3 0.5 20.5t0 24t-1.5 22t-4 23.5t-8 19t-12.5 17.5t-18.5 10.5v3h190v-3q-9 -3 -16 -9.5t-12 -13t-8 -17.5t-4.5 -18t-2.5 -21t-1 -19.5v-20.5v-18v-267q0 -195 159 -195
q97 0 146 70q10 14 15 30.5t5.5 26.5t0.5 34v301v18v20.5t-1 19.5t-2.5 21t-4.5 18t-8 17.5t-12 13t-16 9.5v3h190l1 -3q-9 -3 -16.5 -9.5t-12 -13t-8 -18t-5 -18t-2.5 -21t-1 -20v-20.5v-18v-377v-17.5v-21t1 -19.5t2.5 -20.5t5 -18t8 -18t12 -13t16.5 -9.5v-3h-147z
M309 780q0 -27 -18 -44.5t-45 -17.5q-24 0 -42 19.5t-18 44.5q0 27 19 44.5t46 17.5q24 0 41 -19.5t17 -44.5zM493 781q0 -28 -18 -45.5t-45 -17.5q-25 0 -42.5 19.5t-17.5 44.5q0 27 18.5 44.5t45.5 17.5q25 0 42 -19t17 -44z" />
    <glyph glyph-name="Yacute" unicode="&#xdd;" horiz-adv-x="540" 
d="M331 288v-158q0 -52 8 -77t43 -50v-3h-195v3q10 5 17.5 12.5t12 18t7.5 18.5t4 23t1.5 21.5t0 23t-0.5 20.5v148l-166 267q-17 28 -26.5 41.5t-27.5 31.5t-41 30h91q58 0 75 -28l160 -261l124 186q47 69 -16 100v3h175zM196 691l217 155l55 -73z" />
    <glyph glyph-name="Thorn" unicode="&#xde;" horiz-adv-x="520" 
d="M89 118v444q0 74 -45 93v3h199v-3q-28 -18 -40 -37t-12 -56v-38h97q101 0 165 -46.5t64 -128.5q0 -83 -65.5 -135.5t-154.5 -52.5q-44 0 -73 14q71 4 125 45t54 109q0 63 -39 93t-103 30q-35 0 -70 -6v-331q0 -50 11.5 -71.5t40.5 -40.5v-3h-199v3q26 13 35.5 35t9.5 80z
" />
    <glyph glyph-name="germandbls" unicode="&#xdf;" horiz-adv-x="540" 
d="M227 16l-26 96q67 -54 127 -54q43 0 71 28t28 71q0 55 -47.5 96t-114.5 67q-15 6 -24 10.5t-17.5 15.5t-8.5 25q0 18 19 38t42 35t42 40t19 53q0 32 -24 51.5t-58 19.5q-54 0 -74.5 -35t-20.5 -107v-357v-18.5v-19t1 -15.5t3.5 -16t6 -13t10 -13.5t15.5 -10.5v-3h-165v3
q9 5 16 10.5t11 13.5l6.5 13t3.5 16.5t1 15.5v18.5v18.5v285h-37l37 66q0 44 9 80t29.5 67.5t59 49t92.5 17.5q67 0 118 -35t51 -99q0 -34 -18 -61.5t-39 -41t-39 -26.5t-18 -21q0 -14 25 -24q84 -36 131.5 -83.5t47.5 -126.5q0 -76 -49.5 -122.5t-125.5 -46.5
q-69 0 -116 29z" />
    <glyph glyph-name="agrave" unicode="&#xe0;" horiz-adv-x="480" 
d="M490 53l-44 -66q-132 8 -132 104v158q-28 -15 -96 -31q-21 -5 -30 -7t-26 -9t-24.5 -14.5t-14.5 -21t-7 -31.5q0 -43 31.5 -62.5t77.5 -19.5q24 0 72 14l-59 -75q-28 -5 -52 -5q-75 0 -123 42t-48 105q0 52 31 82t74.5 41t87.5 18t75 22.5t31 45.5q0 32 -30.5 48
t-65.5 16q-50 0 -136 -40l67 100l65 6q90 0 140 -33.5t51 -118.5v-150q0 -66 13.5 -89t71.5 -29zM161 642l217 -155l-272 81z" />
    <glyph glyph-name="aacute" unicode="&#xe1;" horiz-adv-x="480" 
d="M490 53l-44 -66q-132 8 -132 104v158q-28 -15 -96 -31q-21 -5 -30 -7t-26 -9t-24.5 -14.5t-14.5 -21t-7 -31.5q0 -43 31.5 -62.5t77.5 -19.5q24 0 72 14l-59 -75q-28 -5 -52 -5q-75 0 -123 42t-48 105q0 52 31 82t74.5 41t87.5 18t75 22.5t31 45.5q0 32 -30.5 48
t-65.5 16q-50 0 -136 -40l67 100l65 6q90 0 140 -33.5t51 -118.5v-150q0 -66 13.5 -89t71.5 -29zM122 493l217 155l55 -73z" />
    <glyph glyph-name="acircumflex" unicode="&#xe2;" horiz-adv-x="480" 
d="M490 53l-44 -66q-132 8 -132 104v158q-28 -15 -96 -31q-21 -5 -30 -7t-26 -9t-24.5 -14.5t-14.5 -21t-7 -31.5q0 -43 31.5 -62.5t77.5 -19.5q24 0 72 14l-59 -75q-28 -5 -52 -5q-75 0 -123 42t-48 105q0 52 31 82t74.5 41t87.5 18t75 22.5t31 45.5q0 32 -30.5 48
t-65.5 16q-50 0 -136 -40l67 100l65 6q90 0 140 -33.5t51 -118.5v-150q0 -66 13.5 -89t71.5 -29zM241 647l161 -153q-66 0 -161 60q-87 -59 -165 -60z" />
    <glyph glyph-name="atilde" unicode="&#xe3;" horiz-adv-x="480" 
d="M490 53l-44 -66q-132 8 -132 104v158q-28 -15 -96 -31q-21 -5 -30 -7t-26 -9t-24.5 -14.5t-14.5 -21t-7 -31.5q0 -43 31.5 -62.5t77.5 -19.5q24 0 72 14l-59 -75q-28 -5 -52 -5q-75 0 -123 42t-48 105q0 52 31 82t74.5 41t87.5 18t75 22.5t31 45.5q0 32 -30.5 48
t-65.5 16q-50 0 -136 -40l67 100l65 6q90 0 140 -33.5t51 -118.5v-150q0 -66 13.5 -89t71.5 -29zM417 637q-2 -5 -9.5 -26t-10.5 -28t-11.5 -22t-16.5 -21t-21.5 -11.5t-30.5 -5.5q-34 0 -89 11q-58 10 -89 10q-36 0 -72 -26q2 4 10 26.5t12.5 29.5t14 20.5t22 18t30.5 4.5
q20 0 78 -9q50 -10 77 -10q71 0 106 39z" />
    <glyph glyph-name="adieresis" unicode="&#xe4;" horiz-adv-x="480" 
d="M490 53l-44 -66q-132 8 -132 104v158q-28 -15 -96 -31q-21 -5 -30 -7t-26 -9t-24.5 -14.5t-14.5 -21t-7 -31.5q0 -43 31.5 -62.5t77.5 -19.5q24 0 72 14l-59 -75q-28 -5 -52 -5q-75 0 -123 42t-48 105q0 52 31 82t74.5 41t87.5 18t75 22.5t31 45.5q0 32 -30.5 48
t-65.5 16q-50 0 -136 -40l67 100l65 6q90 0 140 -33.5t51 -118.5v-150q0 -66 13.5 -89t71.5 -29zM209 582q0 -27 -18 -44.5t-45 -17.5q-24 0 -42 19.5t-18 44.5q0 27 19 44.5t46 17.5q24 0 41 -19.5t17 -44.5zM393 583q0 -28 -18 -45.5t-45 -17.5q-25 0 -42.5 19.5
t-17.5 44.5q0 27 18.5 44.5t45.5 17.5q25 0 42 -19t17 -44z" />
    <glyph glyph-name="aring" unicode="&#xe5;" horiz-adv-x="480" 
d="M490 53l-44 -66q-132 8 -132 104v158q-28 -15 -96 -31q-21 -5 -30 -7t-26 -9t-24.5 -14.5t-14.5 -21t-7 -31.5q0 -43 31.5 -62.5t77.5 -19.5q24 0 72 14l-59 -75q-28 -5 -52 -5q-75 0 -123 42t-48 105q0 52 31 82t74.5 41t87.5 18t75 22.5t31 45.5q0 32 -30.5 48
t-65.5 16q-50 0 -136 -40l67 100l65 6q90 0 140 -33.5t51 -118.5v-150q0 -66 13.5 -89t71.5 -29zM332 595q0 -40 -27.5 -67t-67.5 -27q-37 0 -63.5 27.5t-26.5 65.5t27 65t65 27t65.5 -26.5t27.5 -64.5zM184 594q0 -25 15.5 -40.5t38.5 -15.5q25 0 41 15t16 39
q0 25 -15.5 41t-40.5 16t-40 -15.5t-15 -39.5z" />
    <glyph glyph-name="ae" unicode="&#xe6;" horiz-adv-x="800" 
d="M782 246h-353q-2 -81 50.5 -137t133.5 -56q99 0 166 55h3l-48 -92q-57 -29 -131 -29q-128 0 -203.5 66.5t-71.5 192.5q-17 -10 -74.5 -22.5t-97 -32.5t-39.5 -55q0 -38 33 -60.5t72 -22.5q56 0 113 42h3l-44 -85q-39 -23 -96 -23q-69 0 -125.5 38.5t-56.5 104.5
q0 69 40.5 96t154.5 50q31 6 48.5 10.5t36.5 12t27 18t8 24.5q0 32 -35 49t-69 17q-57 0 -135 -39l68 92q50 13 80 13q107 0 156 -67q72 67 163 67q103 0 162.5 -62t60.5 -165zM437 304h241q-20 103 -119 103q-48 0 -82 -28.5t-40 -74.5z" />
    <glyph glyph-name="ccedilla" unicode="&#xe7;" horiz-adv-x="460" 
d="M415 461v-103h-3q-43 49 -122 49q-73 0 -120 -46t-47 -117q0 -84 61 -137.5t147 -53.5q80 0 146 49h3l-52 -95q-52 -20 -132 -20q-24 0 -46 3l-17 -43l24 3q30 0 51.5 -15.5t21.5 -44.5q0 -34 -26.5 -54t-60.5 -20q-63 0 -107 35l30 39q36 -30 67 -30q36 0 36 29
q0 25 -30 25q-9 0 -25 -4l-28 37l21 53q-83 23 -134 82.5t-51 135.5q0 123 82 189t203 66q56 0 108 -12z" />
    <glyph glyph-name="egrave" unicode="&#xe8;" horiz-adv-x="520" 
d="M500 246h-367q1 -90 57 -141.5t143 -51.5q96 0 164 53h3l-50 -94q-60 -25 -138 -25q-126 0 -206.5 70.5t-80.5 175.5t69.5 172.5t180.5 67.5q101 0 164.5 -65t60.5 -162zM137 304h258q-16 103 -129 103q-50 0 -85 -28t-44 -75zM181 642l217 -155l-272 81z" />
    <glyph glyph-name="eacute" unicode="&#xe9;" horiz-adv-x="520" 
d="M500 246h-367q1 -90 57 -141.5t143 -51.5q96 0 164 53h3l-50 -94q-60 -25 -138 -25q-126 0 -206.5 70.5t-80.5 175.5t69.5 172.5t180.5 67.5q101 0 164.5 -65t60.5 -162zM137 304h258q-16 103 -129 103q-50 0 -85 -28t-44 -75zM176 493l217 155l55 -73z" />
    <glyph glyph-name="ecircumflex" unicode="&#xea;" horiz-adv-x="520" 
d="M500 246h-367q1 -90 57 -141.5t143 -51.5q96 0 164 53h3l-50 -94q-60 -25 -138 -25q-126 0 -206.5 70.5t-80.5 175.5t69.5 172.5t180.5 67.5q101 0 164.5 -65t60.5 -162zM137 304h258q-16 103 -129 103q-50 0 -85 -28t-44 -75zM261 647l161 -153q-66 0 -161 60
q-87 -59 -165 -60z" />
    <glyph glyph-name="edieresis" unicode="&#xeb;" horiz-adv-x="520" 
d="M500 246h-367q1 -90 57 -141.5t143 -51.5q96 0 164 53h3l-50 -94q-60 -25 -138 -25q-126 0 -206.5 70.5t-80.5 175.5t69.5 172.5t180.5 67.5q101 0 164.5 -65t60.5 -162zM137 304h258q-16 103 -129 103q-50 0 -85 -28t-44 -75zM229 582q0 -27 -18 -44.5t-45 -17.5
q-24 0 -42 19.5t-18 44.5q0 27 19 44.5t46 17.5q24 0 41 -19.5t17 -44.5zM413 583q0 -28 -18 -45.5t-45 -17.5q-25 0 -42.5 19.5t-17.5 44.5q0 27 18.5 44.5t45.5 17.5q25 0 42 -19t17 -44z" />
    <glyph glyph-name="igrave" unicode="&#xec;" horiz-adv-x="240" 
d="M33 460h61q47 0 65 13h3v-362v-16.5v-16.5t0.5 -14.5t2 -14.5t4 -12.5t7 -12.5t10.5 -10.5t14 -10.5v-3h-167v3q9 5 16 11t11 14l6.5 13t3.5 16.5t1 15.5v19v19v239v18.5v19t-1 16t-3.5 16t-6.5 13t-11 14t-16 10.5v3zM41 642l217 -155l-272 81z" />
    <glyph glyph-name="iacute" unicode="&#xed;" horiz-adv-x="240" 
d="M33 460h61q47 0 65 13h3v-362v-16.5v-16.5t0.5 -14.5t2 -14.5t4 -12.5t7 -12.5t10.5 -10.5t14 -10.5v-3h-167v3q9 5 16 11t11 14l6.5 13t3.5 16.5t1 15.5v19v19v239v18.5v19t-1 16t-3.5 16t-6.5 13t-11 14t-16 10.5v3zM-14 493l217 155l55 -73z" />
    <glyph glyph-name="icircumflex" unicode="&#xee;" horiz-adv-x="240" 
d="M33 460h61q47 0 65 13h3v-362v-16.5v-16.5t0.5 -14.5t2 -14.5t4 -12.5t7 -12.5t10.5 -10.5t14 -10.5v-3h-167v3q9 5 16 11t11 14l6.5 13t3.5 16.5t1 15.5v19v19v239v18.5v19t-1 16t-3.5 16t-6.5 13t-11 14t-16 10.5v3zM121 647l161 -153q-66 0 -161 60q-87 -59 -165 -60z
" />
    <glyph glyph-name="idieresis" unicode="&#xef;" horiz-adv-x="240" 
d="M33 460h61q47 0 65 13h3v-362v-16.5v-16.5t0.5 -14.5t2 -14.5t4 -12.5t7 -12.5t10.5 -10.5t14 -10.5v-3h-167v3q9 5 16 11t11 14l6.5 13t3.5 16.5t1 15.5v19v19v239v18.5v19t-1 16t-3.5 16t-6.5 13t-11 14t-16 10.5v3zM89 582q0 -27 -18 -44.5t-45 -17.5q-24 0 -42 19.5
t-18 44.5q0 27 19 44.5t46 17.5q24 0 41 -19.5t17 -44.5zM273 583q0 -28 -18 -45.5t-45 -17.5q-25 0 -42.5 19.5t-17.5 44.5q0 27 18.5 44.5t45.5 17.5q25 0 42 -19t17 -44z" />
    <glyph glyph-name="eth" unicode="&#xf0;" 
d="M124 244q0 -75 42.5 -133t114.5 -58q68 0 111.5 46.5t43.5 114.5q0 79 -41.5 136t-117.5 57q-68 0 -110.5 -47t-42.5 -116zM175 516l-38 36l95 53q-54 31 -102 41l80 57q57 -22 102 -54l98 54l38 -36l-91 -51q83 -68 131.5 -160.5t48.5 -191.5q0 -128 -72 -202.5
t-189 -74.5q-105 0 -179 67.5t-74 171.5q0 110 77 178.5t188 68.5q63 0 113 -37l2 2q-44 75 -124 135z" />
    <glyph glyph-name="ntilde" unicode="&#xf1;" horiz-adv-x="540" 
d="M28 460h59q44 0 67 13h3v-77q56 77 141 77q45 0 87 -17.5t65 -51.5q5 -7 9 -16.5t6.5 -16.5t4.5 -19.5t3 -18.5t1.5 -21t0.5 -19v-20.5v-17.5v-145v-18.5v-19t1 -16t3.5 -16t6.5 -13t11 -14t16 -10.5v-3h-167v3q9 5 16 11t11 14l6.5 13t3.5 16.5t1 15.5v18.5v18.5v135
q0 83 -27.5 122.5t-93.5 39.5q-62 0 -84 -33t-22 -87v-177v-18.5v-19t1 -16t3.5 -16t6.5 -13t11 -14t16 -10.5v-3h-167v3q9 5 16 11t11 14l6.5 13t3.5 16.5t1 15.5v19v19v238v16.5v16.5t-0.5 14.5t-2 14.5t-4 12.5t-7 12.5t-10.5 10.5t-14 10.5v3zM447 637q-2 -5 -9.5 -26
t-10.5 -28t-11.5 -22t-16.5 -21t-21.5 -11.5t-30.5 -5.5q-34 0 -89 11q-58 10 -89 10q-36 0 -72 -26q2 4 10 26.5t12.5 29.5t14 20.5t22 18t30.5 4.5q20 0 78 -9q50 -10 77 -10q71 0 106 39z" />
    <glyph glyph-name="ograve" unicode="&#xf2;" 
d="M276 -13q-105 0 -179 67.5t-74 171.5q0 110 77 178.5t188 68.5q100 0 167 -59q82 -72 82 -179q0 -106 -76.5 -177t-184.5 -71zM281 53q68 0 111.5 46.5t43.5 114.5q0 79 -41.5 136t-117.5 57q-68 0 -110.5 -47t-42.5 -116q0 -75 42.5 -133t114.5 -58zM201 642l217 -155
l-272 81z" />
    <glyph glyph-name="oacute" unicode="&#xf3;" 
d="M276 -13q-105 0 -179 67.5t-74 171.5q0 110 77 178.5t188 68.5q100 0 167 -59q82 -72 82 -179q0 -106 -76.5 -177t-184.5 -71zM281 53q68 0 111.5 46.5t43.5 114.5q0 79 -41.5 136t-117.5 57q-68 0 -110.5 -47t-42.5 -116q0 -75 42.5 -133t114.5 -58zM196 493l217 155
l55 -73z" />
    <glyph glyph-name="ocircumflex" unicode="&#xf4;" 
d="M276 -13q-105 0 -179 67.5t-74 171.5q0 110 77 178.5t188 68.5q100 0 167 -59q82 -72 82 -179q0 -106 -76.5 -177t-184.5 -71zM281 53q68 0 111.5 46.5t43.5 114.5q0 79 -41.5 136t-117.5 57q-68 0 -110.5 -47t-42.5 -116q0 -75 42.5 -133t114.5 -58zM281 647l161 -153
q-66 0 -161 60q-87 -59 -165 -60z" />
    <glyph glyph-name="otilde" unicode="&#xf5;" 
d="M276 -13q-105 0 -179 67.5t-74 171.5q0 110 77 178.5t188 68.5q100 0 167 -59q82 -72 82 -179q0 -106 -76.5 -177t-184.5 -71zM281 53q68 0 111.5 46.5t43.5 114.5q0 79 -41.5 136t-117.5 57q-68 0 -110.5 -47t-42.5 -116q0 -75 42.5 -133t114.5 -58zM457 637
q-2 -5 -9.5 -26t-10.5 -28t-11.5 -22t-16.5 -21t-21.5 -11.5t-30.5 -5.5q-34 0 -89 11q-58 10 -89 10q-36 0 -72 -26q2 4 10 26.5t12.5 29.5t14 20.5t22 18t30.5 4.5q19 0 78 -9q50 -10 77 -10q71 0 106 39z" />
    <glyph glyph-name="odieresis" unicode="&#xf6;" 
d="M276 -13q-105 0 -179 67.5t-74 171.5q0 110 77 178.5t188 68.5q100 0 167 -59q82 -72 82 -179q0 -106 -76.5 -177t-184.5 -71zM281 53q68 0 111.5 46.5t43.5 114.5q0 79 -41.5 136t-117.5 57q-68 0 -110.5 -47t-42.5 -116q0 -75 42.5 -133t114.5 -58zM249 582
q0 -27 -18 -44.5t-45 -17.5q-24 0 -42 19.5t-18 44.5q0 27 19 44.5t46 17.5q24 0 41 -19.5t17 -44.5zM433 583q0 -28 -18 -45.5t-45 -17.5q-25 0 -42.5 19.5t-17.5 44.5q0 27 18.5 44.5t45.5 17.5q25 0 42 -19t17 -44z" />
    <glyph glyph-name="divide" unicode="&#xf7;" horiz-adv-x="600" 
d="M66 262h466v-56h-466v56zM361 63q0 -26 -18 -44.5t-43 -18.5q-27 0 -45 19t-18 47q0 25 19 41.5t45 16.5q24 0 42 -18.5t18 -42.5zM361 407q0 -26 -18 -44.5t-43 -18.5q-27 0 -45 19t-18 47q0 25 19 41.5t45 16.5q24 0 42 -18.5t18 -42.5z" />
    <glyph glyph-name="oslash" unicode="&#xf8;" 
d="M224 -9l-36 -103h-60l42 119q-67 26 -107 87t-40 134q0 109 75.5 177t192.5 68q25 0 45 -4l31 85h55l-35 -99q64 -24 106.5 -88t42.5 -133q0 -106 -77.5 -176.5t-184.5 -70.5zM361 382l-115 -325q22 -4 34 -4q66 0 110.5 47.5t44.5 120.5q0 47 -19 92t-55 69zM196 81
l115 322q-24 4 -37 4q-69 0 -109.5 -48.5t-40.5 -119.5q0 -102 72 -158z" />
    <glyph glyph-name="ugrave" unicode="&#xf9;" horiz-adv-x="540" 
d="M348 460h51q3 0 15.5 -0.5t18 0t14.5 1.5t15.5 4t11.5 8h3v-364v-16.5v-16.5t0.5 -14.5t2 -14.5t4 -12.5t7 -12t10.5 -10t14 -9.5v-3h-129v65q-27 -42 -59.5 -60t-84.5 -18q-88 0 -131 51t-43 157v154v16.5v16.5t-0.5 14.5t-2 14.5t-4 12.5t-7 12.5t-10.5 10.5t-14 10.5
v3h65q46 0 61 13h3v-261q0 -74 25.5 -111.5t87.5 -37.5q50 0 82 36.5t32 94.5v154v19v19t-1 16t-3.5 16.5t-6.5 13t-11 14.5t-16 11v3zM191 642l217 -155l-272 81z" />
    <glyph glyph-name="uacute" unicode="&#xfa;" horiz-adv-x="540" 
d="M348 460h51q3 0 15.5 -0.5t18 0t14.5 1.5t15.5 4t11.5 8h3v-364v-16.5v-16.5t0.5 -14.5t2 -14.5t4 -12.5t7 -12t10.5 -10t14 -9.5v-3h-129v65q-27 -42 -59.5 -60t-84.5 -18q-88 0 -131 51t-43 157v154v16.5v16.5t-0.5 14.5t-2 14.5t-4 12.5t-7 12.5t-10.5 10.5t-14 10.5
v3h65q46 0 61 13h3v-261q0 -74 25.5 -111.5t87.5 -37.5q50 0 82 36.5t32 94.5v154v19v19t-1 16t-3.5 16.5t-6.5 13t-11 14.5t-16 11v3zM186 493l217 155l55 -73z" />
    <glyph glyph-name="ucircumflex" unicode="&#xfb;" horiz-adv-x="540" 
d="M348 460h51q3 0 15.5 -0.5t18 0t14.5 1.5t15.5 4t11.5 8h3v-364v-16.5v-16.5t0.5 -14.5t2 -14.5t4 -12.5t7 -12t10.5 -10t14 -9.5v-3h-129v65q-27 -42 -59.5 -60t-84.5 -18q-88 0 -131 51t-43 157v154v16.5v16.5t-0.5 14.5t-2 14.5t-4 12.5t-7 12.5t-10.5 10.5t-14 10.5
v3h65q46 0 61 13h3v-261q0 -74 25.5 -111.5t87.5 -37.5q50 0 82 36.5t32 94.5v154v19v19t-1 16t-3.5 16.5t-6.5 13t-11 14.5t-16 11v3zM271 647l161 -153q-66 0 -161 60q-87 -59 -165 -60z" />
    <glyph glyph-name="udieresis" unicode="&#xfc;" horiz-adv-x="540" 
d="M348 460h51q3 0 15.5 -0.5t18 0t14.5 1.5t15.5 4t11.5 8h3v-364v-16.5v-16.5t0.5 -14.5t2 -14.5t4 -12.5t7 -12t10.5 -10t14 -9.5v-3h-129v65q-27 -42 -59.5 -60t-84.5 -18q-88 0 -131 51t-43 157v154v16.5v16.5t-0.5 14.5t-2 14.5t-4 12.5t-7 12.5t-10.5 10.5t-14 10.5
v3h65q46 0 61 13h3v-261q0 -74 25.5 -111.5t87.5 -37.5q50 0 82 36.5t32 94.5v154v19v19t-1 16t-3.5 16.5t-6.5 13t-11 14.5t-16 11v3zM239 582q0 -27 -18 -44.5t-45 -17.5q-24 0 -42 19.5t-18 44.5q0 27 19 44.5t46 17.5q24 0 41 -19.5t17 -44.5zM423 583q0 -28 -18 -45.5
t-45 -17.5q-25 0 -42.5 19.5t-17.5 44.5q0 27 18.5 44.5t45.5 17.5q25 0 42 -19t17 -44z" />
    <glyph glyph-name="yacute" unicode="&#xfd;" horiz-adv-x="500" 
d="M267 89l101 254q7 17 8.5 21t6 20t4 23t-1.5 18.5t-8 19t-19 12.5v3h140l-208 -496q-39 -93 -91 -130t-127 -37q-54 0 -119 25l90 65q37 -24 56 -24q25 0 45 11.5t34.5 34t22.5 39.5t19 45l6 16l-4 5q-6 6 -11 11.5t-8.5 9t-6.5 8.5t-5 7.5t-5 9t-4.5 9t-5.5 12t-6 13.5
l-122 266q-2 3 -6 12.5t-5.5 13t-5.5 11.5t-6 11t-6.5 10t-7.5 10l-8 8t-10 8t-11.5 6.5t-13.5 6.5v3h85q49 0 67 -40zM166 493l217 155l55 -73z" />
    <glyph glyph-name="thorn" unicode="&#xfe;" horiz-adv-x="580" 
d="M68 -126v697q0 40 -9 57.5t-29 26.5v3h63q49 0 63 16h3v-272h2q23 33 69.5 52t92.5 19q102 0 165.5 -68.5t63.5 -169.5q0 -105 -68.5 -176.5t-172.5 -71.5q-41 0 -74 13l-54 82q60 -29 109 -29q77 0 118 46.5t41 124.5q0 75 -40 127t-113 52q-68 0 -111 -48
q-13 -15 -19.5 -34t-7.5 -33t-1 -40v-374q0 -56 38 -76v-3h-167v3q22 14 30 29t8 47z" />
    <glyph glyph-name="ydieresis" unicode="&#xff;" horiz-adv-x="500" 
d="M267 89l101 254q7 17 8.5 21t6 20t4 23t-1.5 18.5t-8 19t-19 12.5v3h140l-208 -496q-39 -93 -91 -130t-127 -37q-54 0 -119 25l90 65q37 -24 56 -24q25 0 45 11.5t34.5 34t22.5 39.5t19 45l6 16l-4 5q-6 6 -11 11.5t-8.5 9t-6.5 8.5t-5 7.5t-5 9t-4.5 9t-5.5 12t-6 13.5
l-122 266q-2 3 -6 12.5t-5.5 13t-5.5 11.5t-6 11t-6.5 10t-7.5 10l-8 8t-10 8t-11.5 6.5t-13.5 6.5v3h85q49 0 67 -40zM219 582q0 -27 -18 -44.5t-45 -17.5q-24 0 -42 19.5t-18 44.5q0 27 19 44.5t46 17.5q24 0 41 -19.5t17 -44.5zM403 583q0 -28 -18 -45.5t-45 -17.5
q-25 0 -42.5 19.5t-17.5 44.5q0 27 18.5 44.5t45.5 17.5q25 0 42 -19t17 -44z" />
    <glyph glyph-name="dotlessi" unicode="&#x131;" horiz-adv-x="240" 
d="M33 460h61q47 0 65 13h3v-362v-16.5v-16.5t0.5 -14.5t2 -14.5t4 -12.5t7 -12.5t10.5 -10.5t14 -10.5v-3h-167v3q9 5 16 11t11 14l6.5 13t3.5 16.5t1 15.5v19v19v239v18.5v19t-1 16t-3.5 16t-6.5 13t-11 14t-16 10.5v3z" />
    <glyph glyph-name="Lslash" unicode="&#x141;" horiz-adv-x="540" 
d="M221 81l136 -9q96 -7 178 61h3l-53 -133h-410v3q11 4 18.5 10.5t12.5 17.5t8 19t4 23.5t1.5 22t0 24t-0.5 20.5v134l-78 -78v55q0 28 4.5 38t26.5 31l47 46v151q0 3 0.5 20.5t0 24t-1.5 22t-4 23.5t-8 19t-12.5 18t-18.5 11v3h190v-3q-9 -3 -16 -9.5t-12 -13t-8 -18
t-4.5 -18.5t-2.5 -21t-1 -19.5v-20.5v-18v-63l95 89v-54q0 -29 -4 -37.5t-27 -29.5l-64 -61v-280z" />
    <glyph glyph-name="lslash" unicode="&#x142;" horiz-adv-x="240" 
d="M46 658h61q51 0 64 16h3v-216l73 70v-19q0 -7 0.5 -20t0 -16t-1.5 -10t-4.5 -11t-8.5 -10t-14 -15l-44 -44v-272v-18.5v-19t1 -16t3.5 -16.5l6.5 -13t11 -14t16 -11v-3h-167v3q9 5 16 11t11 14l6.5 13t3.5 16.5t1 16v19v18.5v197l-71 -71v19q0 7 -0.5 19t0 15t1.5 10
t4 11l7.5 10t12.5 14l46 46v166v16.5v16.5t-0.5 14.5t-2 14.5t-4 12.5t-7 12.5t-10.5 10.5t-14 10.5v3z" />
    <glyph glyph-name="OE" unicode="&#x152;" horiz-adv-x="1040" 
d="M625 82l-1 18q-80 -116 -253 -116q-149 0 -249.5 97.5t-100.5 245.5t98.5 247.5t245.5 99.5q154 0 259 -114q0 62 -45 95v3h311q32 0 45 3h3v-119h-3q-30 53 -128 44l-88 -8v-185h101q44 0 57 4h3v-96h-3q-3 4 -6 6.5t-7.5 4.5t-7.5 3.5t-9.5 2.5t-9 1.5t-10 1t-9 0.5
h-10.5h-8h-81v-238l122 -11q100 0 189 53h3l-49 -125h-405v3q46 27 46 79zM373 602q-115 0 -176.5 -72.5t-61.5 -189.5q0 -121 64 -202.5t182 -81.5q113 0 174.5 69.5t61.5 183.5q0 82 -24 146t-80.5 105.5t-139.5 41.5z" />
    <glyph glyph-name="oe" unicode="&#x153;" horiz-adv-x="920" 
d="M900 246h-355q2 -87 51.5 -140t133.5 -53q94 0 167 57h3l-51 -96q-58 -27 -137 -27q-153 0 -217 104q-86 -104 -213 -104q-106 0 -182.5 66t-76.5 170q0 114 76 182t191 68q133 0 205 -106q65 106 197 106q96 0 153 -66t55 -161zM549 304h246q-6 47 -35.5 75t-77.5 28
q-51 0 -85 -27t-48 -76zM287 53q74 0 117.5 43t43.5 117q0 79 -43 136.5t-120 57.5q-76 0 -118.5 -45t-42.5 -122q0 -82 41 -135t122 -52z" />
    <glyph glyph-name="Scaron" unicode="&#x160;" horiz-adv-x="520" 
d="M428 652v-113q-29 29 -71.5 46t-85.5 17q-51 0 -90 -22t-39 -69q0 -37 35.5 -67t86 -52.5t101 -46.5t86 -63.5t35.5 -90.5q0 -83 -77 -145t-191 -62q-98 0 -179 30l-29 125q96 -83 219 -83q50 0 96.5 28t46.5 76q0 43 -35.5 74t-86 53t-101 46t-86 66t-35.5 101
q0 60 38.5 100.5t93 57t119.5 16.5q79 0 149 -22zM261 723l-165 153q78 -1 165 -60q95 60 161 60z" />
    <glyph glyph-name="scaron" unicode="&#x161;" horiz-adv-x="420" 
d="M345 460v-85q-59 32 -123 32q-14 0 -28.5 -2t-30 -7t-25 -15t-9.5 -24q0 -24 28 -40.5t67.5 -28.5t79.5 -27t68 -45.5t28 -74.5q0 -69 -63 -112.5t-161 -43.5q-71 0 -130 24l-35 98q88 -56 188 -56q40 0 75 15.5t35 49.5q0 28 -28 47t-67.5 31.5t-79.5 27.5t-68 44
t-28 71q0 50 32.5 81.5t73.5 42t90 10.5q64 0 111 -13zM211 525l-165 153q78 -1 165 -60q95 60 161 60z" />
    <glyph glyph-name="Ydieresis" unicode="&#x178;" horiz-adv-x="540" 
d="M331 288v-158q0 -52 8 -77t43 -50v-3h-195v3q10 5 17.5 12.5t12 18t7.5 18.5t4 23t1.5 21.5t0 23t-0.5 20.5v148l-166 267q-17 28 -26.5 41.5t-27.5 31.5t-41 30h91q58 0 75 -28l160 -261l124 186q47 69 -16 100v3h175zM239 780q0 -27 -18 -44.5t-45 -17.5
q-24 0 -42 19.5t-18 44.5q0 27 19 44.5t46 17.5q24 0 41 -19.5t17 -44.5zM423 781q0 -28 -18 -45.5t-45 -17.5q-25 0 -42.5 19.5t-17.5 44.5q0 27 18.5 44.5t45.5 17.5q25 0 42 -19t17 -44z" />
    <glyph glyph-name="Zcaron" unicode="&#x17d;" horiz-adv-x="600" 
d="M536 0h-527l362 576l-170 10q-45 3 -77 -6.5t-73 -36.5h-3l51 115h442l-360 -574l210 -12q97 -5 198 55h3zM301 723l-165 153q78 -1 165 -60q95 60 161 60z" />
    <glyph glyph-name="zcaron" unicode="&#x17e;" horiz-adv-x="460" 
d="M423 0h-424v3l277 383l-103 8q-88 7 -141 -36h-3l50 102h354v-3l-263 -379l146 -12q81 -7 160 43h3zM231 525l-165 153q78 -1 165 -60q95 60 161 60z" />
    <glyph glyph-name="florin" unicode="&#x192;" 
d="M202 106l67 354h-96l12 59h95l2 13q1 4 4 22t4.5 24t5 21t6.5 23t8 20t11 21t13 18q49 60 138 60q60 0 109 -26l-64 -63q-20 23 -51 23q-74 0 -90 -156h100l-12 -59h-99l-69 -367q-23 -126 -70.5 -178t-141.5 -52q-56 0 -106 25l67 65q25 -21 54 -21q42 0 64.5 43.5
t38.5 130.5z" />
    <glyph glyph-name="circumflex" unicode="&#x2c6;" horiz-adv-x="460" 
d="M231 647l161 -153q-66 0 -161 60q-87 -59 -165 -60z" />
    <glyph glyph-name="caron" unicode="&#x2c7;" horiz-adv-x="460" 
d="M231 525l-165 153q78 -1 165 -60q95 60 161 60z" />
    <glyph glyph-name="uni02C9" unicode="&#x2c9;" horiz-adv-x="500" 
d="M66 581v65h364v-65h-364z" />
    <glyph glyph-name="breve" unicode="&#x2d8;" horiz-adv-x="480" 
d="M66 638h61q32 -56 119 -56q83 0 114 56h62q-19 -56 -68.5 -88.5t-110.5 -32.5t-110.5 32t-66.5 89z" />
    <glyph glyph-name="dotaccent" unicode="&#x2d9;" horiz-adv-x="260" 
d="M189 583q0 -28 -18 -45.5t-45 -17.5q-24 0 -42 19.5t-18 44.5q0 27 19 45t46 18q24 0 41 -19.5t17 -44.5z" />
    <glyph glyph-name="ring" unicode="&#x2da;" horiz-adv-x="300" 
d="M242 595q0 -40 -27.5 -67t-67.5 -27q-37 0 -63.5 27.5t-26.5 65.5t27 65t65 27t65.5 -26.5t27.5 -64.5zM94 594q0 -25 15.5 -40.5t38.5 -15.5q25 0 41 15t16 39q0 25 -15.5 41t-40.5 16t-40 -15.5t-15 -39.5z" />
    <glyph glyph-name="ogonek" unicode="&#x2db;" horiz-adv-x="280" 
d="M209 -79l-42 -63q-12 -4 -27 -4q-30 0 -52 16.5t-22 46.5q0 47 48 77l9 6h51q-33 -33 -33 -59q0 -27 34 -27q13 0 34 7z" />
    <glyph glyph-name="tilde" unicode="&#x2dc;" horiz-adv-x="480" 
d="M417 637q-2 -5 -9.5 -26t-10.5 -28t-11.5 -22t-16.5 -21t-21.5 -11.5t-30.5 -5.5q-34 0 -89 11q-58 10 -89 10q-36 0 -72 -26q2 4 10 26.5t12.5 29.5t14 20.5t22 18t30.5 4.5q20 0 78 -9q50 -10 77 -10q71 0 106 39z" />
    <glyph glyph-name="hungarumlaut" unicode="&#x2dd;" horiz-adv-x="660" 
d="M66 493l217 155l55 -73zM312 493l218 155l55 -73z" />
    <glyph glyph-name="uni03A9" unicode="&#x3a9;" horiz-adv-x="723" 
d="M192 73v2q-57 48 -94.5 121t-37.5 164q0 135 86 225t218 90q133 0 215 -93t82 -217q0 -94 -38.5 -169t-95.5 -121v-2h148v-73h-250v54q62 38 103 112.5t41 181.5q0 100 -55.5 176.5t-150.5 76.5q-94 0 -152.5 -73.5t-58.5 -183.5q0 -100 42 -177.5t102 -112.5v-54h-250
v73h146z" />
    <glyph glyph-name="uni03BC" unicode="&#x3bc;" horiz-adv-x="540" 
d="M386 0v65q-27 -42 -59.5 -60t-84.5 -18q-47 0 -81 14l3 -78q3 -83 11 -99q8 -20 29 -26v-3h-122q-28 0 -28 9q0 4 0.5 10t0.5 10l15 333q-2 24 -2 38v154v16.5v16.5t-0.5 14.5t-2 14.5t-4 12.5t-7 12.5t-10.5 10.5t-14 10.5v3h65q46 0 61 13h3v-261q0 -74 25.5 -111.5
t87.5 -37.5q50 0 82 36.5t32 94.5v154v19v19t-1 16t-3.5 16.5t-6.5 13t-11 14.5t-16 11v3h51q3 0 15.5 -0.5t18 0t14.5 1.5t15.5 4t11.5 8h3v-364v-16.5v-16.5t0.5 -14.5t2 -14.5t4 -12.5t7 -12t10.5 -10t14 -9.5v-3h-129z" />
    <glyph glyph-name="pi" unicode="&#x3c0;" horiz-adv-x="581" 
d="M555 420h-77v-276q0 -97 14 -144h-89q-17 29 -17 137v283h-168q-5 -100 -25 -229t-45 -191h-89q26 75 46 200.5t23 219.5q-74 0 -109 -11l-12 59q44 28 150 28h406z" />
    <glyph glyph-name="uni2010" unicode="&#x2010;" horiz-adv-x="360" 
d="M207 211h-101q-54 0 -87 -12l-2 2l53 60q19 19 23 21q9 4 60 4h101q54 0 87 12l2 -2l-53 -60q-19 -19 -23 -21q-9 -4 -60 -4z" />
    <glyph glyph-name="endash" unicode="&#x2013;" horiz-adv-x="500" 
d="M409 211h-365q-54 0 -87 -12l-2 2l53 60q19 19 23 21q9 4 60 4h365q54 0 87 12l2 -2l-53 -60q-19 -19 -23 -21q-9 -4 -60 -4z" />
    <glyph glyph-name="emdash" unicode="&#x2014;" horiz-adv-x="1000" 
d="M909 211h-865q-54 0 -87 -12l-2 2l53 60q19 19 23 21q9 4 60 4h865q54 0 87 12l2 -2l-53 -60q-19 -19 -23 -21q-9 -4 -60 -4z" />
    <glyph glyph-name="quoteleft" unicode="&#x2018;" horiz-adv-x="280" 
d="M185 682l10 -8q-53 -57 -53 -77q0 -8 12 -10q22 -3 35.5 -16.5t13.5 -34.5q0 -24 -17 -40.5t-40 -16.5q-27 0 -45.5 19.5t-18.5 47.5q0 45 48 108q25 32 37 32q6 0 18 -4z" />
    <glyph glyph-name="quoteright" unicode="&#x2019;" horiz-adv-x="280" 
d="M94 483l-10 8q53 57 53 77q0 8 -12 10q-22 3 -35.5 16.5t-13.5 34.5q0 24 17 40.5t40 16.5q27 0 45.5 -19.5t18.5 -47.5q0 -45 -48 -108q-25 -32 -37 -32q-6 0 -18 4z" />
    <glyph glyph-name="quotesinglbase" unicode="&#x201a;" horiz-adv-x="280" 
d="M94 -92l-10 8q53 57 53 77q0 8 -12 10q-22 3 -35.5 16.5t-13.5 34.5q0 24 17 40.5t40 16.5q27 0 45.5 -19.5t18.5 -47.5q0 -45 -48 -108q-25 -32 -37 -32q-6 0 -18 4z" />
    <glyph glyph-name="quotedblleft" unicode="&#x201c;" horiz-adv-x="440" 
d="M186 682l10 -8q-53 -57 -53 -77q0 -8 12 -10q22 -3 35.5 -16.5t13.5 -34.5q0 -24 -17 -40.5t-40 -16.5q-27 0 -45.5 19.5t-18.5 47.5q0 45 48 108q25 32 37 32q6 0 18 -4zM350 682l10 -8q-53 -57 -53 -77q0 -8 12 -10q22 -3 35.5 -16.5t13.5 -34.5q0 -24 -17 -40.5
t-40 -16.5q-27 0 -45.5 19.5t-18.5 47.5q0 45 48 108q25 32 37 32q6 0 18 -4z" />
    <glyph glyph-name="quotedblright" unicode="&#x201d;" horiz-adv-x="440" 
d="M94 483l-10 8q53 57 53 77q0 8 -12 10q-22 3 -35.5 16.5t-13.5 34.5q0 24 17 40.5t40 16.5q27 0 45.5 -19.5t18.5 -47.5q0 -45 -48 -108q-25 -32 -37 -32q-6 0 -18 4zM258 483l-10 8q53 57 53 77q0 8 -12 10q-22 3 -35.5 16.5t-13.5 34.5q0 24 17 40.5t40 16.5
q27 0 45.5 -19.5t18.5 -47.5q0 -45 -48 -108q-25 -32 -37 -32q-6 0 -18 4z" />
    <glyph glyph-name="quotedblbase" unicode="&#x201e;" horiz-adv-x="440" 
d="M94 -92l-10 8q53 57 53 77q0 8 -12 10q-22 3 -35.5 16.5t-13.5 34.5q0 24 17 40.5t40 16.5q27 0 45.5 -19.5t18.5 -47.5q0 -45 -48 -108q-25 -32 -37 -32q-6 0 -18 4zM258 -92l-10 8q53 57 53 77q0 8 -12 10q-22 3 -35.5 16.5t-13.5 34.5q0 24 17 40.5t40 16.5
q27 0 45.5 -19.5t18.5 -47.5q0 -45 -48 -108q-25 -32 -37 -32q-6 0 -18 4z" />
    <glyph glyph-name="dagger" unicode="&#x2020;" 
d="M320 344v-348q0 -94 28 -130v-3h-137v3q29 36 29 130v348h-73q-31 0 -44.5 -0.5t-35 -6.5t-39.5 -18h-3v129h3q37 -24 120 -24h72v118q0 82 -29 113v3h137v-3q-28 -35 -28 -113v-118h73q66 0 117 24h3v-129h-3q-39 25 -116 25h-74z" />
    <glyph glyph-name="daggerdbl" unicode="&#x2021;" 
d="M320 379v-201h72q78 0 118 25h3v-127h-3q-30 22 -120 22h-70v-102q0 -95 28 -130v-3h-137v3q29 36 29 130v102h-72q-32 0 -45 -0.5t-35 -5.5t-40 -16h-3v127h3q35 -25 126 -25h66v201h-73q-31 0 -44.5 -0.5t-35 -6.5t-39.5 -18h-3v129h3q37 -24 120 -24h72v83
q0 82 -29 113v3h137v-3q-28 -35 -28 -113v-83h73q66 0 117 24h3v-129h-3q-39 25 -116 25h-74z" />
    <glyph glyph-name="bullet" unicode="&#x2022;" horiz-adv-x="340" 
d="M264 349q0 -38 -26.5 -66t-64.5 -28q-42 0 -69 28t-27 70q0 38 29 63.5t68 25.5q37 0 63.5 -28t26.5 -65z" />
    <glyph glyph-name="ellipsis" unicode="&#x2026;" horiz-adv-x="1000" 
d="M229 50q0 -26 -18 -44.5t-43 -18.5q-27 0 -45 19t-18 47q0 25 19 41.5t45 16.5q24 0 42 -18.5t18 -42.5zM562 50q0 -26 -17.5 -44.5t-42.5 -18.5q-28 0 -46 19t-18 47q0 25 19 41.5t45 16.5q25 0 42.5 -18.5t17.5 -42.5zM895 50q0 -26 -17.5 -44.5t-42.5 -18.5
q-28 0 -46 19t-18 47q0 25 19 41.5t45 16.5q24 0 42 -18.5t18 -42.5z" />
    <glyph glyph-name="perthousand" unicode="&#x2030;" horiz-adv-x="1160" 
d="M175 674q70 -1 114 -61.5t44 -150.5q0 -80 -40.5 -141t-116.5 -61t-118.5 61.5t-42.5 141.5q0 53 15 99t53 79t92 33zM172 626q-35 0 -57 -27.5t-29 -59.5t-7 -66q0 -26 4.5 -52t14.5 -53t30 -43.5t48 -16.5q35 0 57.5 28.5t29 61.5t6.5 68q0 33 -8 67t-31.5 63.5
t-57.5 29.5zM608 -16q-54 0 -92 33t-53 79t-15 99q0 80 42.5 141.5t118.5 61.5t116.5 -61t40.5 -141q0 -90 -44 -150.5t-114 -61.5zM609 32q36 0 58 28.5t28.5 60.5t6.5 67q0 34 -8 68.5t-31.5 64t-57.5 29.5q-35 0 -57 -28t-29 -60t-7 -67q0 -26 4.5 -51.5t14.5 -52t30 -43
t48 -16.5zM980 -16q-54 0 -92 33t-53 79t-15 99q0 80 42.5 141.5t118.5 61.5t116.5 -61t40.5 -141q0 -90 -44 -150.5t-114 -61.5zM981 32q35 0 57.5 28.5t29 60.5t6.5 67q0 34 -8 68.5t-31.5 64t-57.5 29.5q-35 0 -57 -28t-29 -60t-7 -67q0 -26 4.5 -51.5t14.5 -52t30 -43
t48 -16.5zM581 658l-323 -658h-59l324 658h58z" />
    <glyph glyph-name="guilsinglleft" unicode="&#x2039;" horiz-adv-x="260" 
d="M78 247l104 161h31l-59 -161l59 -158h-31z" />
    <glyph glyph-name="guilsinglright" unicode="&#x203a;" horiz-adv-x="260" 
d="M185 250l-104 -161h-31l59 161l-59 158h31z" />
    <glyph glyph-name="fraction" unicode="&#x2044;" horiz-adv-x="80" 
d="M236 658l-323 -658h-60l324 658h59z" />
    <glyph glyph-name="Euro" unicode="&#x20ac;" 
d="M424 262h-224q19 -88 71.5 -144t124.5 -56q40 0 86.5 15.5t73.5 39.5h3l-44 -108q-14 -8 -52 -16.5t-65 -8.5q-131 0 -211.5 73.5t-97.5 204.5h-70v54h66v14q0 26 3 52h-69v54h77q25 110 99.5 174t175.5 64q65 0 154 -25v-110q-70 57 -155 57q-59 0 -104 -44t-63 -116
h221v-54h-230q-2 -24 -2 -37q0 -19 1 -29h231v-54z" />
    <glyph glyph-name="afii61289" unicode="&#x2113;" horiz-adv-x="495" 
d="M432 153l41 -38q-69 -127 -195 -127q-80 0 -121.5 47t-48.5 121v11q-6 -5 -25 -20t-30 -23l-26 50q12 10 39.5 32t40.5 34v252q0 122 46 179t115 57q64 0 97 -45.5t33 -115.5q0 -84 -52 -168t-152 -177v-31q1 -64 30.5 -97.5t72.5 -33.5q42 0 77 27.5t58 65.5zM194 500
v-193q143 152 143 260q0 96 -67 96q-30 0 -53 -39t-23 -124z" />
    <glyph glyph-name="trademark" unicode="&#x2122;" horiz-adv-x="920" 
d="M779 658v-375h-58v322l-130 -322h-35l-121 322v-322h-65v375h96l107 -265l112 265h94zM304 658v-53h-119v-322h-65v322h-120v53h304z" />
    <glyph glyph-name="Omega" unicode="&#x2126;" horiz-adv-x="723" 
d="M192 73v2q-57 48 -94.5 121t-37.5 164q0 135 86 225t218 90q133 0 215 -93t82 -217q0 -94 -38.5 -169t-95.5 -121v-2h148v-73h-250v54q62 38 103 112.5t41 181.5q0 100 -55.5 176.5t-150.5 76.5q-94 0 -152.5 -73.5t-58.5 -183.5q0 -100 42 -177.5t102 -112.5v-54h-250
v73h146z" />
    <glyph glyph-name="estimated" unicode="&#x212e;" horiz-adv-x="832" 
d="M799 319h-621q-5 0 -5 -4v-188q0 -11 8 -21q99 -102 235 -102q73 0 137 30.5t110 83.5h55q-52 -61 -132 -97t-171 -36q-158 0 -270.5 101t-112.5 243q0 143 112.5 244t270.5 101q159 0 271.5 -101t112.5 -244v-10zM658 344v189q0 13 -9 22q-101 98 -233 98
q-135 0 -234 -101q-9 -9 -9 -23v-185q0 -6 5 -6h476q4 0 4 6z" />
    <glyph glyph-name="partialdiff" unicode="&#x2202;" horiz-adv-x="554" 
d="M101 623l-29 65q72 54 173 54q109 0 184.5 -95t75.5 -267t-70.5 -282t-196.5 -110q-95 0 -146.5 68t-51.5 155q0 108 62 176t151 68q59 0 101.5 -30.5t59.5 -60.5h1q1 10 1 39q0 115 -52 190.5t-130 75.5q-74 0 -133 -46zM246 62h1q63 0 105 65.5t53 155.5
q-12 35 -49 67.5t-87 32.5q-58 0 -98.5 -51t-40.5 -122q0 -64 32 -106t84 -42z" />
    <glyph glyph-name="uni2206" unicode="&#x2206;" horiz-adv-x="652" 
d="M29 0v57l245 625h107l241 -624v-58h-593zM123 73h400l-134 338q-6 18 -31 84.5t-32 90.5h-4q-5 -19 -28 -79.5t-29 -79.5z" />
    <glyph glyph-name="product" unicode="&#x220f;" horiz-adv-x="705" 
d="M680 584h-108v-676h-90v676h-260v-676h-89v676h-109v80h656v-80z" />
    <glyph glyph-name="summation" unicode="&#x2211;" horiz-adv-x="554" 
d="M534 -92h-512v58l260 319l-249 317v62h485v-76h-360v-4l227 -286l-246 -303v-4h395v-83z" />
    <glyph glyph-name="minus" unicode="&#x2212;" horiz-adv-x="600" 
d="M66 262h466v-56h-466v56z" />
    <glyph glyph-name="uni2215" unicode="&#x2215;" horiz-adv-x="80" 
d="M236 658l-323 -658h-60l324 658h59z" />
    <glyph glyph-name="uni2219" unicode="&#x2219;" horiz-adv-x="280" 
d="M202 235q0 -26 -18 -44.5t-43 -18.5q-27 0 -45 19t-18 47q0 25 19 41.5t45 16.5q24 0 42 -18.5t18 -42.5z" />
    <glyph glyph-name="radical" unicode="&#x221a;" horiz-adv-x="575" 
d="M579 791l-223 -931h-76l-157 433l-74 -28l-17 52l146 57l121 -343q13 -44 18 -70l2 -1q6 39 14 73l181 758h65z" />
    <glyph glyph-name="infinity" unicode="&#x221e;" horiz-adv-x="762" 
d="M713 276v-1q0 -71 -45.5 -115.5t-106.5 -44.5q-44 0 -85.5 27t-93.5 88q-47 -56 -88.5 -85.5t-95.5 -29.5q-61 0 -105 45t-44 111q0 69 44.5 114t112.5 45q50 0 92.5 -30t87.5 -85q23 26 30 33.5t29.5 29t37 29t38 15.5t47.5 8q64 0 104.5 -43t40.5 -111zM205 168h1
q13 0 25 2.5t24.5 10.5t20.5 12.5t22 18t18.5 18t19.5 21t17 18.5q-51 63 -75 82q-37 28 -78 28q-44 0 -70 -31.5t-25 -77.5q0 -43 28 -72.5t72 -29.5zM562 379h-1q-22 0 -47 -13.5t-36.5 -24t-37.5 -38.5t-27 -29q53 -59 84 -82.5t67 -23.5q42 0 68 31.5t26 71.5
q0 49 -27 78.5t-69 29.5z" />
    <glyph glyph-name="integral" unicode="&#x222b;" horiz-adv-x="362" 
d="M346 802l-13 -61q-16 10 -36 10q-31 0 -50 -23q-32 -37 -32 -167q0 -74 7 -232t7 -239q0 -129 -40 -191q-33 -56 -107 -56q-39 0 -69 16l14 64q22 -12 45 -12q28 0 45 21q33 42 33 159q0 82 -7.5 242.5t-7.5 236.5q0 151 55 206q38 39 100 39q32 0 56 -13z" />
    <glyph glyph-name="approxequal" unicode="&#x2248;" horiz-adv-x="556" 
d="M477 420l35 -31q-51 -95 -130 -95q-20 0 -39 5.5t-33 12.5t-43 23q-58 33 -91 33q-31 0 -52.5 -18.5t-45.5 -53.5l-35 31q23 44 59.5 69.5t79.5 25.5q14 0 26.5 -2t26 -8t19 -8.5t21.5 -11.5l16 -9q3 -1 10.5 -5.5l10 -6t9 -5t9 -4.5t8 -3.5t9 -3.5t8.5 -2.5t9 -2t9 -1
t10 -0.5q51 0 94 71zM477 248l35 -32q-51 -94 -130 -94q-28 0 -51.5 9t-63.5 32q-57 33 -91 33q-31 0 -52.5 -18.5t-45.5 -53.5l-35 31q23 44 59.5 69.5t79.5 25.5q14 0 26.5 -2.5t25.5 -7.5t20.5 -8.5t20 -10.5t16.5 -9q3 -2 15 -8.5t15.5 -8.5t13.5 -7t16 -6.5t14.5 -3
t17.5 -1.5q29 0 50.5 17t43.5 54z" />
    <glyph glyph-name="notequal" unicode="&#x2260;" horiz-adv-x="556" 
d="M399 489l-43 -94h150v-55h-172l-65 -140h237v-55h-259l-53 -115l-44 19l44 96h-144v55h167l64 140h-231v55h253l52 113z" />
    <glyph glyph-name="lessequal" unicode="&#x2264;" horiz-adv-x="556" 
d="M504 91l-449 218v59l449 219v-65l-391 -182v-2l391 -183v-64zM507 -3h-457v55h457v-55z" />
    <glyph glyph-name="greaterequal" unicode="&#x2265;" horiz-adv-x="556" 
d="M56 587l449 -219v-59l-449 -218v64l390 183v2l-390 182v65zM505 -3h-454v55h454v-55z" />
    <glyph glyph-name="lozenge" unicode="&#x25ca;" horiz-adv-x="575" 
d="M522 332l-200 -378h-72l-198 378l200 378h73zM441 330l-134 257q-12 28 -19 50h-2q-9 -26 -20 -50l-133 -253l135 -260q13 -30 18 -49h3q5 22 18 48z" />
    <glyph glyph-name="fi" unicode="&#xfb01;" horiz-adv-x="520" 
d="M170 460h174q73 0 88 13h3v-363v-18.5v-19t1 -16t3.5 -16t6.5 -13t11 -14t16 -10.5v-3h-167v3q9 5 16 10.5t11 14t6.5 13t3.5 16t1 16v19v18.5v240q0 31 -8 37.5t-41 6.5h-126v-284v-16.5v-16.5t0.5 -14t2.5 -15t4.5 -12t6.5 -12.5t10.5 -10t14.5 -10.5v-3h-167v3
q9 5 15.5 10.5t10.5 13.5l6.5 13t3.5 16.5t1 16v19v18.5v284h-49l49 66v20q0 37 1 51.5t9 39t26 45.5q55 63 165 63q71 0 117 -27t46 -68q0 -26 -15.5 -42t-41.5 -16q-20 0 -34.5 14t-14.5 34q0 11 7 25q-42 14 -79 14q-56 0 -75 -18.5t-19 -76.5v-58z" />
    <glyph glyph-name="fl" unicode="&#xfb02;" horiz-adv-x="500" 
d="M23 394l48 66q0 77 8 102q9 25 28 46q59 66 159 66q29 0 64 -9t48 -9q27 0 43 18h3v-564v-16.5v-16.5t0.5 -14.5t2 -14.5t4 -12.5t7 -12.5t10.5 -10.5t14 -9.5v-3h-167v3q9 5 16 10.5t11 13.5l6.5 13t3.5 16.5t1 15.5v19v19v480q-35 18 -84 18q-26 0 -42.5 -6t-26 -14
t-13.5 -28.5t-4.5 -35.5t-0.5 -49v-15h136v-80h-3q-5 14 -31 14h-102v-284v-18.5v-19t1 -16t3.5 -16t6.5 -13t11 -14t16 -10.5v-3h-167v3q9 5 16 10.5t11 13.5l6.5 13t3.5 16.5t1 15.5v19v19v284h-48z" />
    <glyph glyph-name="a.superior" horiz-adv-x="380" 
d="M321 439l-24 -37q-50 4 -62 19t-12 65v61q-16 -9 -54 -17q-16 -4 -22 -6t-17 -7.5t-15.5 -14t-4.5 -20.5q0 -45 61 -45q18 0 41 7l-33 -43q-15 -3 -30 -3q-40 0 -68.5 23t-28.5 61q0 35 26.5 53.5t58.5 21.5t58.5 13t26.5 30q0 18 -17 26.5t-37 8.5q-30 0 -78 -22l38 57
l37 4q66 0 93 -32q5 -7 8.5 -14.5t5 -18.5t2 -16.5t0 -20t-0.5 -16.5v-77q0 -40 48 -40z" />
    <glyph glyph-name="o.superior" horiz-adv-x="380" 
d="M190 674q60 0 101 -39.5t41 -99.5q0 -58 -44.5 -97.5t-103.5 -39.5q-60 0 -102 38.5t-42 97.5q0 62 43.5 101t106.5 39zM185 636q-39 0 -63.5 -26.5t-24.5 -65.5q0 -42 24.5 -75t65.5 -33q39 0 63.5 26.5t24.5 65.5q0 44 -23.5 76t-66.5 32z" />
    <glyph glyph-name="one.superior" horiz-adv-x="336" 
d="M63 586v3q43 13 79.5 40.5t58.5 63.5h3v-339v-7q0 -20 1 -30t8.5 -22.5t22.5 -21.5v-3h-136v3q14 6 22.5 13.5t11.5 21t3.5 20t0.5 26.5v232h-75z" />
    <glyph glyph-name="two.superior" horiz-adv-x="336" 
d="M309 270h-298l164 219q1 2 13 17.5t16 21.5t9.5 18.5t5.5 23.5q0 26 -22 41.5t-51 15.5q-51 0 -112 -38h-2l39 73q46 12 85 12q56 0 96.5 -25t40.5 -64q0 -32 -27 -72l-142 -194l85 -6q79 0 134 27h2z" />
    <glyph glyph-name="three.superior" horiz-adv-x="336" 
d="M93 459v49l30 -1q43 -3 70.5 15t27.5 45q0 28 -25.5 44t-56.5 16q-48 0 -99 -30h-2l27 64q39 13 86 13q52 0 95 -24t43 -70q0 -32 -22 -53.5t-57 -29.5v-2q49 -7 80.5 -33.5t31.5 -70.5q0 -48 -35 -79t-79.5 -41.5t-94.5 -10.5l-67 5l-32 72h2q58 -30 118 -30
q45 0 79.5 22.5t34.5 63.5q0 72 -103 72q-27 0 -52 -6z" />
    </font>
</defs>
</svg>
